<?xml version="1.0" standalone="no"?>
<!DOCTYPE svg PUBLIC "-//W3C//DTD SVG 20010904//EN"
 "http://www.w3.org/TR/2001/REC-SVG-20010904/DTD/svg10.dtd">
<svg version="1.0" xmlns="http://www.w3.org/2000/svg"
 width="450.000000pt" height="600.000000pt" viewBox="0 0 1000.000000 500.000000"
 preserveAspectRatio="xMidYMid meet">

<g transform="translate(0.000000,653.000000) scale(0.100000,-0.100000)"
fill="#000000" stroke="none">
<path  d="M5595 6040 c-257 -10 -523 -27 -700 -45 -77 -8 -261 -26 -410 -40
-148 -14 -398 -44 -555 -66 -157 -22 -295 -42 -307 -43 -30 -3 -185 -139 -317
-277 -151 -157 -373 -431 -448 -550 -64 -103 -69 -108 -146 -129 -38 -10 -49
-19 -84 -76 -32 -51 -51 -70 -87 -87 -42 -20 -46 -26 -47 -58 -1 -20 -10 -48
-19 -63 -10 -14 -13 -26 -8 -26 4 0 89 6 188 14 315 25 576 41 1120 66 127 6
307 15 400 21 94 6 289 11 435 11 236 1 275 -2 357 -21 117 -27 119 -27 126 7
3 15 15 49 26 75 l21 48 31 -17 c70 -36 105 -104 61 -118 -26 -9 -58 -45 -81
-92 -13 -26 -21 -34 -24 -24 -3 8 -11 32 -17 54 l-12 39 -20 -32 c-18 -28 -19
-37 -9 -76 14 -54 14 -319 1 -648 l-10 -248 -36 -70 c-52 -105 -102 -154 -183
-181 -58 -19 -94 -22 -301 -26 -129 -2 -231 0 -227 5 5 4 111 11 235 14 267 7
303 15 383 86 50 46 109 145 109 185 0 21 -62 41 -185 63 -107 18 -170 19
-231 4 -50 -13 -59 -24 -69 -93 l-7 -49 -81 6 c-47 4 -106 16 -137 28 -109 43
-149 49 -327 49 -95 0 -173 4 -173 9 0 4 58 11 129 15 139 7 237 -3 336 -34
33 -11 97 -28 141 -38 l82 -19 6 50 c14 100 53 122 216 121 79 0 129 -7 202
-26 l96 -25 6 26 c4 14 11 181 16 371 7 294 6 354 -6 407 -12 48 -13 67 -4 83
6 12 10 23 8 24 -61 39 -206 50 -593 42 -187 -4 -376 -9 -420 -12 -44 -3 -199
-11 -345 -19 -550 -30 -1014 -58 -1189 -72 l-63 -5 4 -49 5 -49 -37 0 c-62 0
-99 -18 -117 -59 -24 -51 -27 -579 -3 -597 12 -10 12 -16 1 -36 -12 -24 -11
-132 4 -255 6 -49 11 -55 56 -89 43 -32 47 -37 34 -51 -19 -18 -15 -4 -27
-103 -6 -47 -12 -150 -13 -230 -2 -139 -3 -147 -28 -184 l-27 -39 0 -322 0
-323 38 -31 c71 -58 122 -116 122 -138 0 -15 2 -15 -103 -38 -70 -15 -80 -20
-102 -53 l-25 -37 0 -325 c0 -196 4 -340 11 -363 16 -60 63 -83 221 -107 328
-49 693 -89 825 -90 26 0 35 -7 57 -43 34 -59 81 -93 177 -128 145 -53 435
-64 534 -20 55 24 125 79 135 106 7 20 13 20 261 12 352 -11 926 -13 971 -4
l37 8 30 -58 c60 -119 148 -189 266 -211 108 -21 215 -32 308 -31 l92 0 -60
22 c-103 38 -244 193 -264 292 -6 25 -12 31 -41 33 -19 2 -38 9 -42 15 -4 7
-8 62 -8 123 0 90 -3 114 -16 125 -21 17 -15 98 26 334 36 203 36 219 9 238
-31 23 -23 71 14 75 31 4 37 22 6 22 -16 0 -20 5 -17 28 3 24 7 27 38 27 19 0
39 6 43 13 14 22 -13 42 -55 42 -39 0 -40 1 -35 28 3 15 11 62 17 104 11 67
18 84 54 127 22 27 54 68 69 90 47 68 48 68 401 80 176 6 325 7 333 2 8 -4 20
-19 27 -32 11 -23 14 -24 111 -21 93 3 102 5 123 29 l23 25 -3 273 -3 274 29
5 c16 3 66 6 113 6 l84 0 -3 -404 c-2 -222 -6 -407 -9 -410 -5 -5 -380 35
-430 46 -8 2 -14 -4 -14 -12 0 -10 12 -16 40 -18 90 -5 126 -14 146 -35 56
-61 143 -280 168 -427 6 -36 14 -149 18 -252 l6 -188 84 0 83 0 0 -33 c0 -19
-3 -36 -6 -39 -3 -3 -40 5 -82 18 -44 13 -78 19 -80 14 -2 -6 -21 -10 -42 -10
-32 0 -39 4 -42 21 -2 18 -20 26 -98 49 -52 15 -108 33 -123 39 -16 6 -30 11
-33 11 -2 0 -4 -30 -4 -67 l0 -68 108 -43 c103 -41 114 -43 243 -49 l135 -6
22 28 c14 18 22 42 22 66 0 38 1 39 35 39 21 0 37 -6 43 -16 7 -13 13 -14 29
-6 11 6 37 11 59 10 21 -1 389 52 817 117 760 116 777 119 777 141 0 29 10 54
21 54 5 0 9 -21 9 -47 0 -67 38 -153 100 -228 42 -51 59 -64 88 -68 21 -4 163
-6 317 -6 243 0 277 1 255 13 -65 36 -127 157 -172 331 -17 70 -19 101 -15
240 6 168 20 232 77 360 82 180 230 207 346 61 46 -57 73 -121 103 -250 26
-111 26 -201 0 -372 -11 -74 -18 -142 -15 -150 4 -10 24 -14 79 -14 l74 0 6
159 6 159 -34 37 c-34 35 -35 39 -35 118 0 110 -22 229 -60 324 -39 97 -74
148 -122 181 -32 21 -44 23 -85 17 -30 -4 -62 -17 -85 -36 -41 -33 -44 -32
-27 4 30 67 153 88 224 39 49 -34 74 -71 115 -168 41 -98 58 -186 68 -331 4
-64 12 -118 17 -120 14 -4 1 215 -18 302 -21 92 -41 146 -78 211 -22 40 -27
55 -17 58 33 10 184 22 191 16 5 -4 -19 -39 -52 -77 l-61 -71 15 -43 c24 -73
45 -216 45 -310 l0 -88 43 -6 c23 -3 85 -6 137 -8 l95 -2 3 43 3 42 225 0 224
0 0 55 0 55 -230 0 -230 0 0 -45 c0 -44 0 -45 -34 -45 -31 0 -34 -3 -43 -42
l-11 -43 -1 36 c0 20 -4 51 -7 68 -6 31 -6 31 35 31 34 0 41 3 41 20 0 17 -7
20 -40 20 -22 0 -40 2 -40 4 0 2 12 25 26 50 22 39 25 55 21 91 -6 41 -3 49
49 125 46 67 55 86 50 110 -6 35 14 50 64 50 31 0 32 -1 28 -40 l-4 -40 121 0
c66 0 144 -3 172 -6 102 -13 40 -24 -128 -24 l-169 0 0 -110 0 -110 180 0 180
0 0 104 c0 59 4 108 10 111 6 3 10 37 10 75 l0 69 33 3 32 3 5 315 5 315 27 3
c50 6 52 24 45 490 -18 1148 -28 1617 -35 1623 -4 3 -81 18 -172 32 -91 15
-412 67 -715 117 -302 49 -649 106 -770 125 -121 20 -341 56 -490 80 -467 77
-942 154 -1170 191 -121 19 -316 51 -433 70 -118 19 -226 33 -240 30 -15 -3
-175 -10 -357 -16 -181 -5 -423 -13 -536 -16 l-206 -7 -7 73 c-8 85 -15 102
-58 128 -43 26 -160 32 -423 22z m382 -42 c55 -26 58 -44 61 -384 l3 -312 -53
-30 c-30 -17 -157 -70 -284 -117 -298 -111 -335 -127 -355 -147 -22 -21 -14
-28 28 -28 73 0 101 -32 119 -132 l6 -38 -36 0 c-29 0 -38 5 -50 28 -12 23
-29 31 -118 56 -56 16 -107 30 -113 32 -6 2 -10 -17 -11 -44 l-1 -48 48 -18
c43 -15 50 -21 59 -57 6 -22 9 -50 7 -62 -3 -19 -4 -18 -12 8 -10 39 -30 61
-81 91 -36 21 -40 27 -36 54 11 79 -21 100 -188 124 -223 32 -356 36 -685 21
-441 -21 -1069 -55 -1335 -74 -63 -4 -117 -6 -119 -4 -15 11 118 212 219 331
192 227 500 535 565 563 44 19 557 87 925 123 36 4 106 12 155 17 50 6 275 24
500 39 444 31 727 34 782 8z m1205 -965 c-2 -434 -4 -1060 -5 -1393 l-2 -605
-135 0 -135 0 -17 345 c-16 319 -45 756 -68 1011 -12 133 -35 255 -54 283 -8
13 -46 33 -95 50 -59 21 -87 36 -102 57 -32 45 -141 118 -211 141 -74 24 -88
39 -88 89 0 20 -6 42 -14 48 -13 11 -158 23 -439 38 -70 3 -124 10 -120 14 4
4 64 30 133 57 69 28 146 59 172 71 75 34 78 46 78 316 l0 233 43 4 c23 3 103
6 177 8 74 1 232 6 350 10 118 3 287 7 375 8 l160 2 -3 -787z m389 743 c151
-25 598 -97 994 -161 396 -64 1135 -183 1643 -265 507 -82 926 -151 931 -154
4 -3 11 -277 15 -608 4 -332 9 -639 11 -683 2 -44 7 -230 11 -412 l6 -333
-111 0 -111 0 0 38 c0 79 -34 81 -45 3 l-7 -49 -119 -7 c-66 -4 -123 -5 -126
-2 -3 3 -8 30 -12 59 -8 68 -27 61 -23 -9 l4 -51 -144 -4 c-78 -2 -144 -3
-145 -2 -2 0 -6 29 -9 63 -9 80 -28 75 -32 -7 l-3 -62 -144 0 -145 0 0 53 c0
55 -14 94 -24 67 -3 -8 -7 -40 -8 -70 l-3 -55 -151 -3 -151 -3 -7 32 c-3 17
-6 46 -6 65 0 35 -14 52 -26 32 -4 -6 -6 -35 -5 -64 1 -29 -1 -54 -6 -57 -4
-3 -81 -9 -171 -13 l-162 -7 0 34 c0 57 -12 110 -24 106 -7 -2 -10 -27 -8 -70
l4 -67 -180 0 -181 0 -5 43 c-3 23 -7 53 -8 67 -6 50 -23 23 -32 -47 l-9 -73
-177 0 c-197 0 -190 -3 -190 68 0 42 -13 68 -28 58 -6 -3 -14 -35 -17 -71 l-7
-65 -193 0 -193 0 -7 70 c-9 91 -29 89 -33 -3 l-3 -67 -107 -1 c-59 -1 -154
-2 -212 -3 l-105 -1 -3 58 c-2 42 -7 57 -17 57 -12 0 -15 -14 -15 -60 l0 -60
-165 0 -165 0 0 1363 c0 750 3 1367 7 1370 13 14 85 6 354 -37z m-1753 -712
c23 -3 42 -10 42 -15 0 -6 -39 -9 -97 -7 -86 3 -98 5 -101 21 -4 20 5 20 156
1z m-234 -46 c5 -9 8 -19 5 -22 -3 -3 -38 -2 -77 1 -76 6 -83 18 -20 33 47 12
79 8 92 -12z m496 -19 c91 -12 120 -23 120 -42 0 -9 -38 -8 -167 5 -93 9 -180
17 -195 18 -18 0 -28 5 -28 15 0 25 106 27 270 4z m45 -79 c141 -12 289 -48
340 -82 48 -33 95 -81 95 -96 0 -12 -20 -13 -117 -7 -223 13 -461 33 -471 39
-5 3 -13 23 -17 43 -4 21 -15 52 -26 69 -28 47 -25 54 24 49 23 -2 101 -9 172
-15z m-714 -135 c10 -33 19 -77 19 -97 0 -35 -2 -38 -28 -38 -28 0 -30 3 -45
75 -24 110 -23 127 9 123 23 -3 29 -12 45 -63z m-758 40 c-1 -5 -14 -11 -28
-13 -19 -3 -24 0 -19 13 7 17 51 17 47 0z m73 0 c10 -8 14 -15 7 -15 -19 0
-43 11 -43 21 0 13 14 11 36 -6z m599 -25 c17 -33 25 -145 10 -145 -5 0 -8 8
-7 18 2 9 -2 17 -7 17 -6 0 -11 13 -11 29 0 16 -7 45 -15 64 -19 45 -19 47 0
47 8 0 21 -13 30 -30z m420 -40 c99 -6 209 -12 245 -15 36 -2 108 -7 160 -10
321 -19 479 -35 531 -53 42 -14 54 -24 60 -45 4 -15 4 -29 1 -31 -4 -2 -72 0
-152 4 -80 5 -356 21 -615 35 -258 14 -480 28 -492 30 -22 5 -26 13 -38 74
l-7 34 63 -7 c35 -3 145 -11 244 -16z m-3165 -55 c0 -8 -4 -15 -9 -15 -13 0
-22 16 -14 24 11 11 23 6 23 -9z m-40 -15 c0 -5 -4 -10 -10 -10 -5 0 -10 5
-10 10 0 6 5 10 10 10 6 0 10 -4 10 -10z m80 -5 c0 -8 -7 -15 -15 -15 -16 0
-20 12 -8 23 11 12 23 8 23 -8z m-57 -22 c-7 -2 -21 -2 -30 0 -10 3 -4 5 12 5
17 0 24 -2 18 -5z m2697 -28 c0 -8 -11 -21 -23 -30 -51 -33 -50 -13 -71 -730
-13 -421 -26 -669 -34 -677 -5 -5 -80 -6 -171 -2 l-162 7 3 50 c4 44 7 51 28
54 38 6 128 50 171 84 39 31 77 94 105 173 24 66 33 205 35 516 3 425 12 491
78 547 31 26 41 28 41 8z m420 6 c74 -6 194 -12 265 -16 72 -3 150 -8 175 -10
44 -4 136 -9 400 -20 74 -3 158 -8 187 -11 l51 -5 16 -71 c27 -120 18 -177
-17 -103 -30 63 -51 70 -243 73 -113 2 -179 0 -193 -7 -25 -14 -46 -52 -56
-106 l-8 -40 -14 75 c-16 83 -42 126 -101 165 -34 22 -54 25 -212 35 -393 23
-470 30 -470 41 0 11 51 11 220 0z m-650 -65 l0 -23 -332 4 c-273 4 -389 2
-643 -16 -170 -12 -526 -32 -790 -46 -264 -13 -514 -27 -555 -31 l-75 -6 -53
-331 c-29 -183 -66 -406 -81 -497 -16 -92 -26 -184 -24 -207 6 -49 -9 -46 171
-44 77 1 122 -2 122 -9 0 -6 -53 -10 -145 -10 -130 0 -147 2 -164 19 -24 24
-21 64 15 276 14 77 47 271 74 430 27 160 53 309 58 333 l10 42 -52 1 c-41 0
-46 2 -28 9 33 14 301 38 612 55 151 8 428 24 615 36 339 20 765 34 1093 37
l172 2 0 -24z m357 14 c-40 -5 -65 -14 -78 -29 -11 -11 -26 -21 -34 -21 -7 0
-20 -3 -29 -6 -26 -10 -18 18 12 43 23 19 38 22 107 21 l80 -1 -58 -7z m707
-39 c52 -21 88 -53 107 -96 15 -34 20 -86 29 -281 9 -208 28 -572 45 -871 l5
-93 -182 0 c-101 0 -274 -3 -385 -7 -116 -3 -203 -2 -202 3 0 5 28 53 62 106
l62 98 265 4 c146 2 277 9 291 14 39 15 46 63 38 237 -4 83 -13 266 -19 408
-12 285 -24 365 -65 407 -26 27 -30 28 -178 35 -84 4 -156 10 -162 15 -16 12
-133 21 -140 10 -10 -16 -22 -12 -28 9 -3 11 -3 21 -2 23 9 8 434 -11 459 -21z
m-521 -51 c-50 -22 -63 -43 -64 -107 l-1 -48 -8 51 c-4 29 -11 57 -15 64 -14
23 -74 40 -140 40 -65 0 -66 0 -80 -33 -9 -23 -17 -121 -24 -317 -6 -157 -14
-329 -17 -382 -4 -60 -3 -98 3 -98 14 0 49 119 83 285 35 168 102 425 111 425
11 0 19 -88 19 -195 0 -94 -3 -109 -39 -206 -22 -57 -63 -180 -92 -274 -29
-93 -54 -172 -56 -174 -8 -12 -19 16 -25 67 -4 35 -6 5 -4 -79 2 -127 4 -141
31 -194 l28 -57 91 6 c63 5 95 12 103 23 6 8 18 13 26 11 11 -2 9 -13 -9 -55
l-24 -53 -147 0 -148 0 6 132 c4 73 10 359 14 636 l8 503 29 24 c29 25 33 25
206 24 l177 0 -42 -19z m550 -33 c16 -10 31 -33 37 -55 17 -66 29 -263 36
-608 l7 -331 -24 -16 c-20 -15 -57 -17 -281 -17 -213 0 -256 2 -252 14 5 14
158 25 382 27 100 1 103 2 122 29 18 25 20 44 20 162 0 159 -17 622 -25 694
-10 82 -14 85 -153 97 -67 6 -122 15 -122 20 0 6 47 8 114 5 84 -3 120 -9 139
-21z m-3540 -34 c5 -8 -97 -624 -107 -650 -8 -20 -131 -14 -131 7 0 11 11 14
45 12 81 -5 79 -12 81 287 2 303 6 291 -88 291 -57 0 -65 10 -36 42 14 15 32
18 124 18 59 0 110 -3 112 -7z m4036 -13 c35 -5 68 -13 74 -19 12 -12 22 -123
64 -726 7 -95 10 -93 -212 -97 l-190 -3 -13 40 c-15 43 -25 155 -46 540 -9
167 -10 254 -4 263 13 15 229 17 327 2z m124 -28 c21 -23 32 -107 47 -337 29
-468 29 -560 -6 -595 -12 -12 -422 -16 -434 -4 -5 5 -13 25 -16 43 -7 31 -5
34 12 25 10 -5 105 -10 210 -12 l192 -3 23 37 23 38 -12 233 c-19 363 -31 492
-52 546 -20 49 -15 60 13 29z m-3816 -58 l30 -6 7 -366 c5 -292 4 -367 -6
-374 -7 -4 -66 -8 -130 -8 -136 0 -124 -16 -108 138 14 131 26 209 61 390 42
218 59 244 146 226z m720 -21 c5 -10 7 -158 5 -329 l-3 -311 -84 -11 c-49 -6
-103 -21 -132 -36 -43 -22 -65 -25 -214 -31 l-167 -7 -7 329 c-7 327 -5 362
27 400 8 10 75 13 289 13 255 0 279 -1 286 -17z m2643 -383 c27 -490 26 -477
56 -497 22 -14 50 -15 222 -9 108 3 207 9 218 12 24 6 44 42 44 79 0 14 4 25
9 25 10 0 21 -290 11 -302 -3 -4 -127 -10 -276 -14 l-271 -7 -7 169 c-3 93
-11 239 -16 324 -17 276 -29 593 -23 604 10 16 10 14 33 -384z m-916 -153
c-42 -128 -80 -236 -85 -241 -23 -25 -15 14 31 152 27 82 50 157 50 165 0 9
17 57 38 109 67 167 48 60 -34 -185z m700 132 c3 -34 6 -131 6 -216 l0 -155
-52 7 c-29 4 -54 9 -56 10 -3 3 58 321 75 393 9 39 20 24 27 -39z m-1066 -301
c-4 -10 -60 -14 -219 -18 -118 -3 -216 -4 -218 -3 -15 10 26 16 156 23 248 12
285 11 281 -2z m-2577 -118 c-1 -30 -6 -58 -10 -62 -4 -4 -23 6 -44 23 -26 22
-37 38 -37 58 0 37 7 42 54 39 l40 -3 -3 -55z m3109 25 c0 -15 60 -52 60 -38
0 5 4 1 9 -7 14 -20 4 -30 -29 -30 -24 0 -32 -6 -44 -35 -18 -43 -31 -46 -22
-5 3 17 1 30 -4 30 -6 0 -10 5 -10 11 0 5 5 7 10 4 6 -4 10 12 10 39 0 25 5
46 10 46 6 0 10 -7 10 -15z m-135 -94 c12 -20 -27 -41 -73 -41 -43 0 -83 13
-72 23 3 2 32 8 65 14 33 6 63 11 67 12 4 0 9 -3 13 -8z m95 -17 c0 -8 -13
-29 -30 -45 -28 -28 -33 -30 -102 -27 -96 4 -91 22 7 26 70 3 76 5 97 32 25
34 28 36 28 14z m-2120 -41 c0 -14 -14 -15 -142 -10 -79 4 -185 7 -235 7 -55
0 -93 4 -93 10 0 6 85 10 235 10 212 0 235 -2 235 -17z m778 0 c3 -10 -56 -13
-275 -13 -284 0 -387 6 -377 22 3 4 150 7 326 6 246 -2 322 -6 326 -15z
m-1723 -53 c4 -6 105 -11 263 -12 233 -2 243 -3 102 -8 l-155 -5 -3 -42 -3
-43 -98 0 c-63 0 -103 4 -113 13 -15 12 -31 90 -20 101 8 9 20 7 27 -4z m1808
-5 c1 -6 -59 -12 -150 -15 -83 -3 -155 -9 -160 -13 -4 -5 -7 -25 -7 -45 l1
-37 -483 0 c-437 0 -484 2 -484 16 0 16 20 79 25 79 1 0 32 -13 68 -30 87 -39
134 -26 65 19 l-33 21 241 0 c213 0 245 -2 280 -19 62 -29 143 -55 150 -48 3
3 -4 20 -16 36 -16 24 -18 32 -8 36 10 4 442 12 501 10 5 0 9 -5 10 -10z m162
-35 c77 -37 132 -43 149 -17 9 15 7 21 -8 32 -17 13 -5 14 102 13 l122 -2 0
-47 c0 -40 -3 -48 -22 -53 -40 -10 -456 -7 -463 4 -8 12 35 100 48 100 5 0 38
-14 72 -30z m-240 -40 c20 -38 12 -42 -75 -38 l-62 3 21 27 c20 25 39 33 83
37 10 0 24 -12 33 -29z m-1311 4 c27 -27 18 -35 -36 -32 -64 4 -75 29 -18 39
19 4 36 7 37 8 1 0 9 -6 17 -15z m4016 -158 c0 -97 -4 -137 -12 -143 -16 -9
-520 -32 -530 -24 -3 3 -8 70 -10 148 l-3 142 105 4 c58 1 183 4 278 5 l172 2
0 -134z m-580 -34 c3 -79 2 -146 -1 -148 -3 -2 -100 -4 -215 -5 -115 -1 -359
-8 -543 -15 -184 -8 -336 -12 -338 -11 -2 2 -6 71 -9 154 l-7 150 84 6 c46 4
108 7 137 7 51 0 52 0 52 -30 l0 -30 -60 0 -60 0 0 -95 0 -95 74 0 c95 0 123
11 141 55 23 54 19 85 -16 121 -23 23 -29 38 -24 53 6 20 13 21 243 24 130 1
305 2 387 2 l150 0 5 -143z m-2684 128 l1154 0 0 -152 0 -153 -1087 2 c-599 1
-1125 5 -1169 9 -97 7 -90 -7 -86 177 3 110 5 128 18 123 9 -3 535 -6 1170 -6z
m1529 -2 c2 -7 6 -79 10 -160 l6 -148 -180 0 -181 0 0 150 c0 83 1 151 3 151
1 1 72 5 157 9 85 3 161 7 168 8 7 1 14 -4 17 -10z m6025 -37 c0 -12 -390 -22
-1905 -51 -297 -6 -832 -17 -1190 -25 -769 -17 -862 -18 -850 -6 10 8 498 20
1760 41 751 13 1976 40 1995 44 33 8 190 5 190 -3z m-5782 -98 c-2 -55 -6 -68
-20 -71 -16 -3 -18 5 -18 61 0 62 5 73 33 76 4 1 7 -29 5 -66z m5681 -51 l-3
-108 -581 -23 c-319 -13 -600 -25 -625 -27 -25 -1 -106 -5 -181 -8 l-136 -5
-6 117 c-2 64 -3 120 -1 123 2 4 117 8 256 8 138 1 254 3 257 5 3 2 197 7 431
11 234 4 427 9 429 11 2 2 40 4 83 4 l79 0 -2 -108z m-1709 11 c0 -32 3 -88 6
-124 l7 -66 -104 -6 c-57 -4 -245 -14 -418 -22 -512 -25 -899 -44 -1176 -60
-143 -8 -286 -15 -317 -15 l-58 0 0 149 0 149 63 6 c34 3 296 10 582 17 286 7
639 15 785 19 146 4 347 7 448 8 l182 2 0 -57z m110 -85 c0 -78 -2 -139 -4
-137 -9 10 -14 279 -6 279 6 0 10 -58 10 -142z m-53 124 c12 -8 18 -151 15
-388 -1 -90 -4 -113 -17 -117 -13 -6 -15 17 -15 186 0 106 -3 222 -7 260 -6
65 -2 75 24 59z m-2156 -217 c-2 -105 -5 -192 -7 -194 -1 -1 -7 0 -13 4 -7 4
-11 72 -11 196 0 176 1 190 18 187 16 -3 17 -19 13 -193z m-71 -225 c0 -358
-2 -410 -15 -410 -13 0 -15 52 -15 410 0 358 2 410 15 410 13 0 15 -52 15
-410z m2322 168 c5 -188 5 -218 -6 -207 -9 10 -18 409 -9 409 6 0 12 -82 15
-202z m-2638 -56 c5 -116 5 -207 0 -212 -10 -9 -328 -30 -456 -30 l-88 0 0
200 c0 110 -1 203 -2 208 -2 4 49 10 112 14 344 22 396 25 410 24 12 -1 16
-35 24 -204z m-574 93 c0 -73 -1 -75 -25 -75 -14 0 -28 -1 -32 -2 -4 -2 -10
10 -13 27 -4 23 -12 31 -36 36 -17 3 -45 4 -63 1 -30 -4 -37 -17 -32 -59 1 -6
-9 -13 -21 -15 -19 -2 -23 -9 -23 -38 0 -27 4 -35 18 -34 11 1 17 -5 17 -20 0
-12 6 -30 13 -40 12 -16 22 -18 70 -12 50 7 57 10 57 29 0 34 29 69 53 65 21
-3 22 -8 22 -103 l0 -100 -175 -7 c-333 -14 -320 -6 -354 -202 -14 -76 -27
-140 -30 -143 -5 -6 -116 -17 -261 -28 -49 -3 -126 -10 -170 -16 -44 -5 -92
-9 -107 -9 l-28 0 2 390 3 390 30 0 c17 1 66 3 110 5 155 8 342 15 575 21 129
4 237 8 239 10 2 2 40 4 83 4 l78 0 0 -75z m-3647 -272 c3 -181 9 -343 13
-361 l6 -33 -58 3 -58 3 -65 105 -65 105 -4 247 -4 247 43 4 c24 2 76 4 115 5
l72 2 5 -327z m819 308 c5 -4 11 -35 14 -69 6 -57 5 -65 -16 -87 -28 -30 -75
-33 -89 -7 -5 9 -12 38 -16 63 l-7 47 -186 6 c-103 3 -239 9 -303 12 -101 5
-119 3 -133 -12 -16 -15 -17 -44 -14 -305 2 -158 6 -290 10 -294 8 -9 1529
-66 1541 -58 13 8 -4 578 -18 623 -4 13 -54 15 -372 15 -361 0 -368 0 -368 20
0 11 3 28 8 38 8 16 33 18 383 17 l374 -1 18 -27 c15 -23 18 -67 22 -389 3
-230 9 -364 15 -366 14 -3 18 555 6 658 -6 44 -13 89 -16 100 -6 20 -2 20 222
17 125 -2 229 -5 231 -6 2 -2 7 -127 11 -277 l7 -274 -35 -34 c-20 -18 -79
-73 -132 -121 l-97 -87 -113 3 c-63 3 -224 9 -359 14 -135 5 -497 19 -805 31
-308 12 -564 25 -568 29 -5 4 -13 167 -17 361 -7 268 -6 357 3 367 10 13 70
14 402 8 214 -4 393 -11 397 -15z m7586 -83 l-3 -103 -90 -7 c-49 -3 -220 -14
-380 -22 -159 -9 -319 -18 -355 -21 -93 -6 -402 -25 -557 -33 l-133 -7 0 112
c0 109 1 113 23 117 12 3 236 15 497 27 261 11 545 24 630 28 85 5 204 9 263
9 l108 2 -3 -102z m-6002 82 c49 0 63 -4 69 -17 16 -39 33 -194 34 -297 l0
-110 -125 -132 c-68 -72 -124 -134 -124 -137 0 -3 47 -3 104 0 119 7 124 3
106 -62 l-12 -44 -127 -3 -126 -3 3 370 c3 361 2 370 -18 397 -12 16 -18 33
-15 38 3 5 42 7 88 5 45 -3 110 -5 143 -5z m-2676 -331 c0 -211 -3 -318 -10
-314 -6 4 -10 122 -10 321 0 203 4 314 10 314 6 0 10 -114 10 -321z m6982 156
l3 -125 -40 -5 c-22 -2 -272 -21 -555 -40 -623 -43 -1186 -81 -1335 -92 -60
-4 -116 -8 -124 -8 -10 0 -13 28 -12 140 1 76 3 140 4 141 2 2 425 23 782 39
177 8 315 16 360 20 22 3 171 12 330 21 282 16 518 29 562 32 21 2 22 -1 25
-123z m-4524 -212 c3 -369 -12 -462 -21 -137 -11 342 -9 456 6 452 9 -4 13
-78 15 -315z m1337 276 c-8 -12 -55 -12 -55 0 0 10 39 20 53 13 4 -2 5 -8 2
-13z m-5 -94 c0 -9 -9 -15 -25 -15 -16 0 -25 6 -25 15 0 9 9 15 25 15 16 0 25
-6 25 -15z m1070 -153 c0 -153 -10 -303 -19 -298 -3 2 -5 104 -3 225 2 139 6
219 12 216 6 -4 10 -66 10 -143z m3829 92 c-1 -31 -7 -57 -13 -59 -10 -3 -153
-15 -725 -61 -202 -16 -203 -16 -231 4 -98 73 -197 67 -279 -16 -42 -42 -32
-40 -243 -58 l-78 -7 0 66 0 65 35 6 c19 4 35 11 35 16 0 23 19 7 22 -17 3
-24 8 -28 41 -31 42 -4 67 11 67 39 0 10 4 20 9 24 8 5 167 18 311 27 43 2 45
1 43 -24 -1 -25 2 -28 43 -34 58 -8 78 0 72 30 -3 14 -2 29 1 34 3 6 72 13
154 17 l147 8 0 -32 c0 -28 3 -31 29 -31 47 0 79 17 83 42 3 20 10 24 63 29
33 4 101 7 152 8 88 1 92 0 95 -21 2 -18 11 -24 35 -26 37 -4 73 12 73 33 0
12 10 16 53 24 4 0 7 -24 6 -55z m-1689 -134 c0 -44 -3 -80 -7 -80 -10 0
-1148 -93 -1653 -135 -228 -19 -418 -35 -423 -35 -4 0 -6 42 -5 93 l3 92 60
-1 c54 -2 60 -4 65 -25 5 -21 13 -24 54 -27 52 -3 76 9 76 40 0 23 6 25 110
33 47 3 137 10 200 15 63 5 132 10 154 10 36 0 38 -2 32 -25 -6 -25 -6 -25 56
-25 73 0 85 6 89 40 4 28 12 29 306 45 l131 7 4 -23 c3 -27 36 -35 95 -24 24
4 33 11 33 25 0 10 3 21 8 23 4 3 79 12 167 21 88 9 174 18 192 20 28 4 32 2
35 -22 3 -24 8 -27 46 -30 47 -3 72 10 72 39 0 13 9 19 38 22 20 2 43 4 50 5
9 2 12 -20 12 -78z m50 5 c0 -60 -3 -75 -15 -75 -12 0 -15 14 -15 68 0 38 3
72 7 75 17 18 23 1 23 -68z m-5943 -5 c91 0 133 -4 133 -11 0 -13 -737 -2
-824 12 -30 5 74 6 253 4 167 -3 364 -5 438 -5z m526 -18 c119 -2 217 -8 217
-13 0 -5 -108 -9 -240 -9 -193 0 -240 3 -240 13 0 20 12 28 29 21 9 -4 114 -9
234 -12z m-518 -32 c53 -4 74 -9 62 -14 -25 -12 -547 4 -547 16 0 10 351 9
485 -2z m6024 -82 c31 -14 51 -29 51 -39 0 -15 -21 -18 -157 -24 -87 -4 -198
-10 -248 -14 l-90 -6 4 -312 c2 -227 0 -313 -8 -313 -6 0 -11 3 -11 8 0 4 -3
145 -7 313 l-6 305 29 12 c16 6 95 14 176 17 160 8 287 22 213 24 -56 1 -364
-18 -397 -25 -25 -5 -28 -3 -28 19 0 56 62 68 317 62 92 -3 120 -7 162 -27z
m-5294 11 c4 -6 5 -12 3 -14 -8 -8 -468 8 -468 17 0 12 457 10 465 -3z m5461
-86 c-19 -49 -42 -119 -52 -156 -9 -36 -23 -72 -30 -78 -18 -15 -18 -2 1 78
15 65 101 260 110 251 3 -3 -10 -45 -29 -95z m-992 31 c10 -27 7 -244 -4 -244
-6 0 -10 33 -10 78 0 42 -3 101 -6 130 -5 33 -3 52 4 52 5 0 13 -7 16 -16z
m-1114 -213 c0 -128 -8 -176 -24 -135 -3 9 -6 74 -6 145 0 108 2 129 15 129
13 0 15 -22 15 -139z m2880 52 c0 -31 -15 -61 -26 -51 -9 10 5 78 16 78 6 0
10 -12 10 -27z m-7760 -3 c102 -5 298 -14 435 -20 138 -5 455 -19 705 -29 250
-11 552 -22 670 -26 280 -8 294 -9 309 -41 6 -14 11 -28 11 -31 0 -6 -788 4
-1020 13 -522 20 -1242 67 -1297 85 -36 12 -58 33 -48 49 8 12 6 12 235 0z
m3009 -52 c-13 -18 -27 -36 -31 -39 -5 -3 -84 -11 -176 -18 -92 -7 -204 -16
-250 -20 -46 -4 -85 -4 -88 0 -2 4 1 19 7 33 14 30 11 29 289 52 107 9 197 18
199 20 2 2 20 4 38 4 l34 0 -22 -32z m-2961 -75 c4 -38 8 -38 -108 -19 -101
17 -120 24 -120 42 0 15 73 22 165 14 59 -5 60 -5 63 -37z m2387 17 l-16 -30
-113 0 c-63 0 -120 -2 -128 -5 -14 -5 -51 49 -40 59 3 3 74 6 159 6 l154 0
-16 -30z m-2215 -25 c0 -24 -2 -25 -70 -25 -38 0 -70 3 -70 6 0 20 50 43 93
44 44 0 47 -2 47 -25z m2756 -7 c-3 -13 -6 -29 -6 -35 0 -7 -4 -13 -10 -13
-11 0 -14 53 -3 63 14 15 25 6 19 -15z m3292 -25 l-3 -48 -450 -47 c-620 -65
-1244 -128 -1280 -131 -29 -2 -30 0 -33 41 -2 23 -2 42 0 43 10 3 1700 187
1731 188 l38 1 -3 -47z m-3333 -20 c3 -13 14 -23 28 -25 16 -2 23 -11 25 -31
3 -28 3 -28 -50 -25 l-53 3 -7 45 c-7 41 -6 46 20 66 24 20 27 20 30 6 1 -9 5
-27 7 -39z m-1296 21 c25 -5 31 -11 31 -33 l0 -26 -75 3 c-70 3 -75 5 -75 26
0 13 3 26 7 29 8 9 71 9 112 1z m134 -24 c5 -19 14 -20 179 -20 95 0 183 -3
196 -6 16 -5 22 -2 22 9 0 26 20 30 43 9 12 -11 42 -25 67 -31 33 -8 -28 -9
-235 -5 -154 4 -283 8 -287 11 -11 6 -10 53 1 53 5 0 11 -9 14 -20z m615 8 c5
-7 13 -24 17 -37 11 -36 -14 -22 -31 17 -13 32 -5 43 14 20z m455 -35 c2 -21
0 -43 -4 -49 -5 -6 -63 -14 -135 -17 -99 -5 -130 -4 -147 8 -12 7 -43 19 -69
26 -27 6 -48 15 -48 19 0 5 28 11 63 14 34 4 118 13 187 20 69 8 130 14 136
15 7 0 14 -16 17 -36z m3437 -28 c0 -8 -2 -15 -4 -15 -2 0 -392 -45 -867 -100
-475 -55 -872 -100 -881 -100 -26 0 -22 29 5 35 12 2 267 32 567 66 300 33
673 76 830 94 342 39 350 40 350 20z m-6485 -58 l110 -12 -3 -160 c-1 -87 -5
-161 -7 -163 -5 -5 -258 18 -292 27 -15 4 -29 15 -31 24 -4 21 4 21 158 2 63
-7 118 -11 122 -9 5 3 8 59 8 124 0 140 20 123 -170 140 -69 7 -126 13 -128
14 -1 2 0 11 4 20 5 14 16 16 63 11 31 -4 106 -12 166 -18z m6477 -17 c5 -33
11 -30 -116 -51 -74 -12 -86 -7 -86 37 0 20 8 23 83 32 45 5 89 10 98 11 11 1
18 -9 21 -29z m-1800 -41 c4 -47 -1 -52 -63 -47 -44 3 -44 3 -47 46 l-3 42 54
0 55 0 4 -41z m1528 5 c19 -49 45 -42 -270 -79 -118 -14 -289 -34 -380 -45
-91 -11 -295 -36 -455 -55 -159 -19 -311 -38 -337 -41 l-48 -6 0 44 c0 44 0
44 38 46 38 2 262 29 942 111 217 27 419 49 448 50 48 1 53 -1 62 -25z m-6222
-36 c3 -23 0 -27 -14 -21 -11 4 -22 -1 -31 -13 -8 -10 -19 -19 -26 -19 -7 0
-14 -11 -15 -24 -3 -18 0 -22 12 -18 9 4 16 2 16 -3 0 -5 11 -12 25 -16 34 -8
31 -20 -5 -28 -41 -8 -68 11 -81 56 -8 33 -6 42 16 78 24 38 29 41 63 38 32
-3 37 -7 40 -30z m1144 -6 c3 -4 8 -56 10 -117 l3 -110 -201 4 c-111 2 -228 6
-260 10 l-59 6 -3 114 -3 114 253 -7 c139 -4 256 -11 260 -14z m5348 -17 c0
-16 22 -12 -380 -61 -455 -54 -1249 -153 -1310 -163 -57 -9 -79 -6 -62 11 5 5
168 29 363 54 699 88 1351 174 1364 178 15 5 25 -3 25 -19z m-3829 -21 c45
-10 54 -44 51 -178 -1 -87 -6 -126 -17 -143 l-15 -23 -308 1 c-169 1 -368 4
-442 8 l-135 6 -3 174 -2 174 422 -7 c233 -3 435 -9 449 -12z m2039 -14 c0 -5
-25 -10 -55 -10 -30 0 -55 5 -55 10 0 6 25 10 55 10 30 0 55 -4 55 -10z m1788
-32 l-3 -33 -220 -32 c-121 -18 -483 -71 -804 -119 l-584 -86 -16 21 c-15 19
-23 21 -74 15 -54 -6 -57 -6 -57 15 0 11 1 21 3 22 17 4 1701 227 1725 228 32
1 33 -1 30 -31z m-6605 -40 c8 -28 6 -30 -35 -26 l-33 3 23 23 c28 28 38 28
45 0z m7202 -73 c9 -33 30 -86 46 -117 37 -76 21 -75 -19 0 -32 59 -63 159
-61 197 0 20 0 20 9 0 4 -11 15 -47 25 -80z m-2385 73 c-1 -48 -12 -58 -61
-58 l-49 0 0 35 0 35 55 0 c37 0 55 -4 55 -12z m2151 -40 c18 -79 74 -194 101
-212 14 -9 30 -28 36 -42 15 -32 15 -34 -1 -34 -15 0 -65 51 -90 92 -18 29
-61 159 -71 216 -9 53 11 36 25 -20z m189 -133 c18 -33 40 -69 49 -79 12 -14
13 -18 2 -15 -26 9 -102 148 -111 206 -5 31 -6 61 -2 67 3 6 11 -18 17 -54 7
-38 25 -90 45 -125z m-271 90 c7 -33 29 -88 48 -123 41 -75 38 -94 -4 -25 -36
59 -60 124 -69 183 -10 65 10 38 25 -35z m-269 45 c0 -14 -9 -21 -32 -25 -101
-17 -1473 -213 -1530 -219 -42 -4 -48 -2 -48 15 0 10 6 19 13 19 24 0 1408
204 1487 219 81 16 110 13 110 -9z m198 -32 c6 -29 14 -64 18 -78 4 -14 3 -21
-2 -17 -11 11 -43 147 -34 147 4 0 12 -24 18 -52z m-78 4 c1 -18 16 -61 45
-127 14 -33 15 -37 2 -26 -22 18 -76 188 -56 175 5 -3 9 -13 9 -22z m316 -60
c10 -26 33 -69 51 -95 19 -27 32 -51 29 -54 -12 -12 -89 116 -111 187 -14 43
13 10 31 -38z m-2233 13 c-2 -5 -25 -11 -53 -13 -40 -2 -50 0 -50 13 0 13 10
15 53 13 28 -2 51 -7 50 -13z m-3 -82 c0 -21 -5 -23 -50 -23 -42 0 -50 3 -50
18 0 26 2 27 54 27 41 1 46 -2 46 -22z m-1407 -576 c33 -42 32 -60 -1 -24 -25
27 -92 137 -92 151 0 6 14 -11 32 -39 17 -27 44 -67 61 -88z m-144 -12 c23
-21 41 -44 41 -49 0 -15 -99 84 -115 114 -27 53 -25 72 3 25 17 -27 49 -68 71
-90z m202 78 c13 -21 39 -58 58 -82 27 -33 30 -41 15 -33 -19 10 -104 129
-104 145 0 15 9 6 31 -30z"/>
<path d="M5660 5743 c-404 -328 -525 -431 -517 -439 13 -14 627 492 627 518 0
11 7 16 -110 -79z"/>
<path d="M7395 3650 l-100 -6 80 -4 c87 -4 83 -4 203 3 46 3 86 8 90 11 6 7
-129 5 -273 -4z"/>
<path d="M5387 4704 c-8 -8 1 -24 14 -24 5 0 9 7 9 15 0 15 -12 20 -23 9z"/>
<path d="M3120 1687 c-3 -3 -4 -44 -2 -91 3 -81 5 -86 28 -92 13 -3 119 -7
236 -8 l213 -1 3 75 c4 114 17 108 -248 116 -124 3 -227 4 -230 1z m454 -39
c12 -57 14 -126 5 -135 -13 -13 -419 -4 -436 9 -14 11 -18 129 -6 141 3 4 102
7 219 7 213 0 214 0 218 -22z"/>
<path d="M4316 1586 c-3 -28 -6 -86 -6 -128 0 -67 3 -79 20 -88 22 -12 637
-29 740 -20 l65 5 3 123 3 123 -33 13 c-25 10 -124 15 -409 18 l-377 4 -6 -50z
m59 3 c11 -21 21 -29 32 -25 12 5 14 1 9 -18 -20 -79 92 -194 142 -144 8 8 15
8 28 -3 14 -12 19 -10 41 15 l25 29 24 -26 c37 -40 96 -38 135 4 34 37 39 17
5 -24 l-23 -29 -167 4 c-128 2 -169 6 -175 17 -7 11 -15 11 -41 2 -45 -15 -70
-14 -70 4 0 9 9 15 25 15 45 0 59 71 16 85 -29 9 -56 44 -44 56 7 7 15 2 27
-15 20 -31 36 -34 36 -6 0 11 -12 26 -29 34 -29 15 -45 39 -34 50 12 12 23 5
38 -25z m85 23 c0 -4 -9 -13 -20 -20 -16 -10 -20 -10 -20 2 0 8 6 17 13 19 19
8 27 8 27 -1z m130 -12 c0 -5 -2 -10 -4 -10 -3 0 -8 5 -11 10 -3 6 -1 10 4 10
6 0 11 -4 11 -10z m86 -33 c-18 -35 -22 -39 -24 -20 -4 27 14 63 32 63 10 0 7
-11 -8 -43z m103 28 c39 -20 48 -45 16 -45 -14 0 -25 -4 -25 -10 0 -5 -20 -10
-45 -10 -25 0 -45 4 -45 9 0 14 26 32 35 23 5 -4 5 -1 1 6 -11 18 0 42 19 42
9 0 29 -7 44 -15z m64 8 c3 -5 1 -16 -2 -26 -6 -17 -8 -16 -19 7 -9 21 -9 26
3 26 7 0 16 -3 18 -7z m165 -34 c15 -38 18 -40 49 -37 34 4 39 -4 27 -36 -3
-9 -12 -16 -20 -16 -21 0 -17 -17 6 -23 28 -7 25 -18 -15 -47 -19 -14 -35 -31
-35 -37 0 -26 -20 -12 -20 14 l0 27 -30 -29 c-31 -30 -34 -27 -30 28 1 15 -3
27 -9 27 -6 0 -11 -13 -11 -30 0 -16 -4 -30 -10 -30 -6 0 -10 28 -10 65 l0 65
29 0 c39 0 46 24 16 49 -32 25 -32 39 3 44 15 2 31 5 35 6 5 0 16 -17 25 -40z
m-448 16 c23 -28 -2 -38 -44 -19 -20 10 -36 21 -36 26 0 14 67 8 80 -7z m-40
-35 c0 -11 -46 -18 -61 -10 -6 4 -9 12 -6 17 7 11 67 5 67 -7z m304 -57 c-10
-58 -39 -93 -76 -93 -25 0 -28 3 -19 14 7 8 23 17 36 20 32 8 32 26 0 26 -18
0 -25 5 -25 18 0 28 11 34 31 16 22 -20 42 -9 34 17 -5 13 -2 19 10 19 13 0
15 -7 9 -37z m-341 -7 c7 -18 -1 -26 -18 -19 -8 2 -11 11 -8 19 7 18 19 18 26
0z m84 4 c25 0 22 -27 -8 -59 -20 -21 -69 -29 -69 -11 0 6 6 10 13 10 8 0 22
8 31 19 16 18 16 19 -9 25 -14 4 -25 11 -25 17 0 7 9 9 23 5 12 -3 32 -6 44
-6z m145 -22 c-15 -15 -26 -4 -18 18 5 13 9 15 18 6 9 -9 9 -15 0 -24z"/>
<path d="M4980 1485 c0 -22 4 -26 23 -23 14 2 22 10 22 23 0 13 -8 21 -22 23
-19 3 -23 -1 -23 -23z"/>
<path d="M4930 1491 c-15 -4 -20 -10 -13 -14 13 -8 43 1 43 14 0 5 -1 9 -2 8
-2 -1 -14 -4 -28 -8z"/>
<path d="M6288 2394 c-146 -7 -281 -17 -300 -22 -24 -6 -39 -19 -55 -48 -21
-38 -84 -292 -76 -306 2 -5 17 -8 32 -8 27 0 29 3 41 68 15 79 42 152 71 192
29 39 67 46 354 66 287 19 296 21 284 52 -7 18 -15 22 -46 21 -21 -1 -158 -8
-305 -15z"/>
<path d="M6605 2325 c-5 -2 -111 -11 -235 -20 -233 -16 -302 -27 -333 -50 -27
-20 -77 -150 -77 -201 l0 -44 59 0 58 0 52 60 c86 99 193 145 361 156 92 6 98
6 138 -20 52 -32 62 -33 33 -2 -24 26 -22 41 11 64 22 16 24 48 2 56 -17 6
-52 7 -69 1z"/>
<path d="M9790 2272 c-79 -54 -129 -167 -166 -377 -18 -103 -18 -163 2 -266
38 -205 86 -305 179 -369 55 -38 73 -37 144 1 52 27 62 38 98 107 22 42 45 97
51 122 20 82 33 252 27 329 -18 220 -58 342 -137 424 -44 47 -45 47 -109 46
-43 0 -72 -6 -89 -17z m136 -192 c42 -15 81 -83 100 -174 13 -66 14 -90 4
-164 -13 -85 -57 -211 -86 -243 -20 -22 -72 -44 -82 -34 -4 3 2 14 13 23 53
43 81 106 110 242 12 55 12 75 0 130 -18 88 -46 149 -84 184 -23 22 -28 32
-19 38 16 10 10 10 44 -2z m-28 -60 c29 -31 62 -149 62 -222 0 -122 -72 -308
-120 -308 -27 0 -32 12 -8 24 32 16 76 106 89 182 22 128 -9 278 -69 324 l-25
20 26 0 c15 0 34 -9 45 -20z m-100 -99 c3 -8 -1 -12 -9 -9 -7 2 -15 10 -17 17
-3 8 1 12 9 9 7 -2 15 -10 17 -17z m-18 -62 c0 -12 -27 -11 -35 1 -11 17 5 32
21 19 8 -6 14 -15 14 -20z m77 -41 c-3 -8 -6 -5 -6 6 -1 11 2 17 5 13 3 -3 4
-12 1 -19z m-47 -38 c0 -5 -7 -10 -15 -10 -8 0 -15 5 -15 10 0 6 7 10 15 10 8
0 15 -4 15 -10z m-56 -61 c-3 -5 -10 -7 -15 -3 -5 3 -7 10 -3 15 3 5 10 7 15
3 5 -3 7 -10 3 -15z m32 -26 c-11 -11 -17 4 -9 23 7 18 8 18 11 1 2 -10 1 -21
-2 -24z"/>
<path  d="M6390 2191 c-121 -33 -166 -59 -234 -132 -35 -38 -68 -69 -73 -69 -8
0 -35 -48 -47 -82 -7 -24 7 -22 49 6 63 43 160 69 227 62 168 -17 335 -195
382 -405 9 -40 16 -97 16 -126 l0 -52 103 -31 c56 -17 113 -33 127 -34 l25 -3
3 105 c5 169 -35 344 -114 503 -83 165 -118 213 -159 220 -19 3 -48 16 -65 29
-42 30 -148 35 -240 9z"/>
<path d="M6733 2183 c4 -3 7 -11 7 -18 0 -8 10 -22 23 -32 74 -59 193 -352
218 -533 11 -83 13 -288 3 -314 -5 -12 0 -16 21 -16 l28 0 -6 198 c-7 256 -39
410 -122 589 -45 98 -56 109 -112 118 -25 4 -51 8 -57 9 -6 2 -8 1 -3 -1z"/>
<path d="M5876 1963 c-3 -16 -8 -38 -12 -50 -6 -22 -4 -23 70 -23 46 0 76 4
76 10 0 6 9 29 19 50 l19 40 -83 0 c-82 0 -83 0 -89 -27z"/>
<path d="M6190 1937 c-28 -10 -79 -37 -113 -60 -52 -36 -67 -52 -94 -107 -56
-117 -104 -375 -124 -660 l-12 -175 26 -55 c46 -96 170 -210 257 -235 14 -4
28 -12 31 -17 10 -16 149 10 207 39 68 34 121 80 178 155 60 77 100 173 128
307 21 96 22 122 15 247 -11 215 -50 323 -161 449 -66 75 -133 113 -217 123
-58 7 -78 5 -121 -11z m227 -323 c20 -31 11 -41 -22 -26 -61 28 -123 8 -197
-63 -63 -61 -89 -127 -95 -244 -3 -54 -3 -110 1 -124 9 -37 94 -145 127 -162
32 -17 115 -20 155 -5 44 17 39 4 -13 -34 -52 -39 -73 -44 -73 -21 0 22 -40
35 -67 22 -13 -6 -23 -14 -23 -19 0 -15 -18 -8 -50 19 -27 22 -31 31 -26 56 7
33 -15 77 -38 77 -17 0 -26 21 -35 88 -6 39 -4 55 6 63 15 13 18 80 3 95 -7 7
-7 28 1 65 14 69 34 102 58 94 27 -8 58 41 42 67 -16 26 -6 52 25 68 22 12 29
12 60 -5 28 -15 39 -16 59 -7 14 6 25 18 25 26 0 23 57 0 77 -30z m2 -69 c2
-3 -1 -11 -7 -17 -7 -7 -12 -31 -12 -55 0 -41 -1 -43 -30 -43 -20 0 -40 -9
-57 -26 -23 -23 -27 -24 -35 -10 -5 9 -18 16 -28 16 -32 0 -22 36 26 93 l23
27 3 -47 c3 -56 23 -64 47 -21 13 22 13 33 4 57 -6 16 -8 33 -4 36 6 7 61 -1
70 -10z m76 -85 c19 -37 19 -50 0 -50 -9 0 -20 -10 -25 -22 -6 -17 -9 -18 -9
-6 -1 9 -10 23 -22 31 -20 15 -20 15 -1 21 11 4 23 18 26 31 8 32 12 31 31 -5z
m-77 -72 c-3 -7 -11 -13 -18 -13 -7 0 -15 6 -17 13 -3 7 4 12 17 12 13 0 20
-5 18 -12z m-173 -69 c14 -3 21 -14 23 -36 3 -26 -1 -32 -20 -35 -15 -2 -24
-11 -26 -25 -2 -13 -7 -23 -12 -23 -14 0 -21 49 -14 102 6 41 9 48 18 36 6 -9
20 -17 31 -19z m185 -3 c0 -14 -29 -31 -38 -21 -6 6 18 35 29 35 5 0 9 -6 9
-14z m-84 -30 c7 -29 -1 -46 -22 -46 -9 0 -14 11 -14 35 0 41 26 49 36 11z
m174 -11 c0 -28 -4 -35 -20 -35 -11 0 -20 6 -20 13 0 6 -3 22 -6 35 -5 19 -2
22 20 22 23 0 26 -4 26 -35z m-100 -55 c0 -5 -9 -10 -20 -10 -11 0 -20 5 -20
10 0 6 9 10 20 10 11 0 20 -4 20 -10z m-121 -98 c-10 -7 -19 -22 -19 -33 0
-35 -33 -17 -58 30 -22 42 -22 43 -3 38 12 -3 27 3 37 14 17 19 18 19 40 -8
21 -27 21 -28 3 -41z m190 21 c2 -1 -7 -19 -20 -40 -21 -33 -24 -35 -27 -16
-2 12 -10 27 -17 33 -12 10 -12 15 3 35 16 22 18 22 37 7 11 -9 22 -18 24 -19z
m-121 9 c2 -7 -3 -12 -12 -12 -9 0 -16 7 -16 16 0 17 22 14 28 -4z m8 -77 c1
-54 1 -55 -28 -55 -23 0 -29 4 -24 16 3 9 6 31 6 49 0 27 5 34 23 38 12 2 22
5 22 6 0 0 1 -24 1 -54z"/>
<path d="M5815 1870 c-14 -26 -46 -429 -52 -672 l-5 -208 34 0 c41 0 37 -20
64 275 9 106 26 217 40 270 41 158 70 249 92 292 12 23 22 44 22 45 0 5 -192
3 -195 -2z"/>
</g>
</svg>
