<svg xmlns="http://www.w3.org/2000/svg" xmlns:xlink="http://www.w3.org/1999/xlink" width="560" height="560" viewBox="0 0 560 560">
  <defs>
    <clipPath id="clip-rapidez">
      <rect width="560" height="560"/>
    </clipPath>
  </defs>
  <g id="rapidez" clip-path="url(#clip-rapidez)">
    <path id="truck-svgrepo-com" d="M452.513,227.948c-1.518-.319-2.951-.619-4.225-.95-14.445-3.756-21.038-5.815-25.913-15.227L403.91,174.387c-5.934-11.456-21.258-20.777-34.158-20.777H336.879V110.441a14.074,14.074,0,0,0-14.06-14.057l-228.964.23c-7.544,0-13.233,6-13.233,13.946v12.759H21.967a21.968,21.968,0,0,0,0,43.936H80.621V188.31h-38.4a21.967,21.967,0,0,0,0,43.935h38.4V253.3H62.47a21.967,21.967,0,0,0,0,43.935H80.621v22.022a14.074,14.074,0,0,0,14.057,14.057H118.5a52.647,52.647,0,0,0,104.18,0h96.389c.5,0,1.014-.034,1.526-.067a52.646,52.646,0,0,0,104.188.067h34.21a24.45,24.45,0,0,0,24.423-24.421V267.453C483.412,234.431,464.816,230.529,452.513,227.948Zm-79.826,78.595A19.138,19.138,0,1,1,353.55,325.68,19.163,19.163,0,0,1,372.687,306.542Zm-35.808-81.571V174H362c9.655,0,21.566,7.245,25.987,15.776l16.431,33.267q.522,1.01,1.085,1.929H336.879ZM189.728,325.679a19.14,19.14,0,1,1-19.144-19.138A19.163,19.163,0,0,1,189.728,325.679Z" transform="translate(38 42.616)" fill="#00a9e1"/>
  </g>
</svg>
