<?xml version="1.0" standalone="no"?>
<!DOCTYPE svg PUBLIC "-//W3C//DTD SVG 20010904//EN"
 "http://www.w3.org/TR/2001/REC-SVG-20010904/DTD/svg10.dtd">
<svg version="1.0" xmlns="http://www.w3.org/2000/svg"
 width="600.000000pt" height="564.000000pt" viewBox="0 0 600.000000 564.000000"
 preserveAspectRatio="xMidYMid meet">

<g transform="translate(0.000000,564.000000) scale(0.100000,-0.100000)"
fill="#000000" stroke="none">
<path d="M4462 5492 c-26 -27 -60 -73 -77 -103 l-30 -54 -5 -464 c-4 -398 -7
-465 -20 -472 -14 -8 -988 -224 -1040 -231 -17 -2 -26 -10 -28 -25 -4 -25 -32
-33 -80 -20 -55 14 -97 6 -100 -21 -3 -21 -7 -22 -40 -15 -20 4 -53 8 -73 8
l-36 0 -6 215 c-4 118 -7 264 -7 323 0 124 -10 158 -64 205 -40 35 -70 41 -80
16 -12 -32 -5 -94 14 -127 19 -33 20 -49 18 -353 l-3 -319 -25 -3 c-61 -8 -90
-23 -90 -48 0 -23 -3 -24 -35 -18 -19 3 -47 3 -61 0 -23 -6 -26 -11 -21 -39 5
-32 4 -33 -56 -57 -113 -43 -208 -90 -203 -99 3 -4 29 -11 57 -15 49 -7 51 -8
44 -33 -3 -14 -9 -39 -12 -55 -6 -29 -8 -30 -45 -25 -22 3 -53 1 -69 -5 l-29
-10 0 -154 0 -154 -37 0 c-21 0 -164 7 -318 15 -154 8 -299 15 -323 15 -26 0
-41 4 -37 10 3 6 14 10 24 10 34 0 69 38 82 90 12 47 15 50 45 50 118 0 192
273 99 366 -56 56 -147 3 -179 -106 -20 -67 -20 -94 -1 -156 24 -79 20 -147
-11 -183 -14 -17 -33 -31 -43 -31 -9 0 -28 -8 -41 -17 -23 -16 -60 -18 -425
-18 -284 0 -416 -4 -454 -13 -30 -6 -56 -11 -57 -9 -2 1 3 21 11 42 17 47 19
158 5 186 -13 24 -52 25 -74 0 -26 -29 -41 -119 -30 -187 l9 -58 -57 -29 c-74
-36 -102 -79 -102 -156 -1 -31 3 -221 7 -423 l8 -368 -29 0 c-58 0 -62 -5 -62
-90 0 -84 5 -93 55 -106 58 -14 59 -45 5 -116 -22 -29 -53 -78 -69 -108 -25
-46 -31 -52 -36 -35 -4 11 -21 54 -38 95 l-31 75 -5 422 c-5 315 -9 425 -18
434 -7 7 -16 10 -19 6 -4 -4 -3 -204 2 -444 l9 -438 32 -68 c38 -80 52 -159
33 -183 -11 -12 -13 -77 -11 -297 1 -155 6 -298 12 -319 8 -32 50 -69 377
-330 692 -554 882 -698 971 -737 71 -30 159 -45 202 -34 l34 9 -4 184 -4 184
75 -69 c173 -162 346 -245 541 -260 153 -12 291 34 418 139 94 77 251 255 299
336 51 87 103 221 125 323 9 42 20 77 24 77 3 0 41 -12 83 -27 43 -14 80 -24
83 -21 10 9 24 362 18 436 -3 39 -2 72 2 72 4 0 144 -36 311 -80 167 -44 314
-80 327 -80 33 0 453 206 461 226 12 30 6 63 -11 67 -10 3 -56 11 -103 17
-107 16 -126 25 -69 34 100 15 315 103 591 242 111 56 142 67 188 69 30 1 65
5 77 9 18 7 24 2 38 -27 20 -44 30 -48 130 -54 44 -3 109 -8 143 -10 55 -4 67
-2 86 16 13 12 29 40 36 61 l13 40 68 0 c76 0 90 11 110 83 8 29 15 37 33 37
22 0 23 5 29 83 4 45 7 126 7 180 l0 98 -29 5 c-22 5 -31 13 -36 34 -11 49
-31 57 -155 64 -63 4 -117 11 -120 16 -4 6 -58 15 -121 20 -63 6 -129 13 -146
16 l-33 5 -1 622 c-1 756 -7 916 -36 955 -11 15 -69 56 -129 92 l-109 65 -3
52 c-2 28 -9 56 -16 63 -11 8 -67 -1 -227 -35 -117 -25 -216 -45 -221 -45 -4
0 -8 189 -8 420 l0 421 25 49 c18 36 25 65 25 108 0 136 -22 152 -98 74z m68
-23 c0 -11 -15 -53 -32 -92 l-33 -72 -1 -668 c0 -367 -3 -670 -7 -673 -3 -3
-20 5 -38 18 l-32 23 6 657 c6 731 0 672 79 776 44 56 58 64 58 31z m-1681
-670 c27 -29 29 -55 35 -422 5 -305 4 -317 -13 -307 -10 5 -21 17 -25 26 -3 8
-6 160 -6 336 0 307 -1 322 -21 354 -17 28 -18 34 -5 34 8 0 24 -10 35 -21z
m2091 -377 c0 -59 2 -61 132 -132 54 -29 104 -60 113 -70 8 -9 19 -39 24 -66
5 -27 11 -403 13 -836 l3 -788 -50 -49 -50 -49 -234 -56 c-129 -31 -236 -56
-237 -56 -8 0 -4 1519 4 1523 4 2 110 -29 236 -70 126 -40 231 -72 233 -69 3
2 -131 48 -296 103 -286 93 -301 99 -311 127 -6 17 -10 117 -10 236 l0 208 78
17 c42 9 131 30 197 45 164 38 155 39 155 -18z m-593 -184 c-4 -62 -7 -141 -7
-175 l0 -61 -58 -7 c-55 -6 -61 -5 -111 29 -29 20 -57 36 -62 36 -32 0 18 145
70 203 36 40 119 87 155 87 18 0 19 -6 13 -112z m-782 -78 c10 -32 -4 -60 -29
-60 -28 0 -46 18 -46 46 0 37 64 49 75 14z m89 0 c36 -11 68 -26 72 -32 5 -8
2 -9 -12 -3 -10 4 -44 17 -74 27 -51 19 -71 28 -58 28 3 0 35 -9 72 -20z
m-252 -12 c2 -14 15 -26 38 -34 41 -15 29 -18 -17 -5 -24 7 -33 6 -37 -5 -3
-8 -13 -14 -21 -14 -15 0 -15 1 -1 16 9 8 16 26 16 40 0 30 17 32 22 2z m-44
-15 c-3 -18 -38 -29 -64 -19 -26 10 -3 36 33 36 27 0 34 -4 31 -17z m-198 -48
c0 -27 -26 -35 -48 -13 -21 21 -13 38 18 38 25 0 30 -4 30 -25z m705 5 c122
-18 267 -62 311 -95 18 -13 17 -14 -16 -13 -19 0 -101 -7 -181 -17 -89 -10
-157 -13 -175 -8 -18 5 -56 36 -93 76 l-63 67 73 0 c41 0 106 -5 144 -10z
m-587 -9 c10 -6 8 -10 -10 -14 -35 -10 -40 -8 -26 8 15 17 19 17 36 6z m-293
-26 c0 -13 -8 -21 -24 -23 -32 -5 -48 12 -31 33 18 22 55 15 55 -10z m120 -5
c3 -5 -3 -10 -14 -10 -11 0 -23 5 -26 10 -3 6 3 10 14 10 11 0 23 -4 26 -10z
m-227 -27 c3 -18 -2 -23 -18 -23 -12 0 -30 5 -41 11 -17 8 -18 13 -8 25 19 23
63 14 67 -13z m-110 -15 c-2 -14 -13 -24 -30 -29 -25 -6 -28 -5 -28 16 0 22
12 31 48 34 8 1 12 -7 10 -21z m822 -8 c14 -4 20 -8 13 -9 -6 -1 -144 -19
-305 -40 -161 -22 -322 -42 -358 -46 -36 -4 -74 -12 -85 -18 -11 -6 -38 -12
-60 -13 -22 -2 -107 -24 -189 -49 -81 -25 -149 -45 -151 -45 -1 0 0 10 2 23 4
20 24 30 141 70 141 47 159 50 787 130 54 7 179 5 205 -3z m-944 -41 c10 -17
-12 -32 -35 -24 -29 9 -27 35 3 35 14 0 28 -5 32 -11z m1022 -18 c-20 -23 -30
-61 -56 -207 -17 -98 -36 -217 -43 -264 -19 -145 -24 -165 -39 -167 -8 -1 -40
-5 -71 -8 l-57 -6 5 -103 6 -103 -64 1 -64 1 -3 -47 -3 -48 -802 0 c-441 0
-892 -1 -1002 -3 l-200 -2 -11 160 c-5 88 -16 170 -22 183 -13 22 -12 22 61
22 93 0 167 -10 167 -22 0 -6 -9 -12 -21 -15 -19 -5 -20 -11 -14 -72 10 -107
12 -113 43 -109 l27 3 -4 97 c-3 85 -1 99 14 104 10 4 182 -1 384 -11 421 -22
504 -22 685 -1 157 19 341 32 609 46 124 6 210 15 230 24 39 16 52 43 66 136
5 36 21 135 36 219 15 85 25 170 23 188 l-4 33 74 0 74 0 -24 -29z m743 3 c22
-19 22 -21 16 -265 -4 -136 -11 -258 -17 -273 -9 -25 -12 -26 -89 -26 -63 0
-80 3 -85 16 -3 9 -6 137 -6 285 l0 270 23 9 c37 16 133 6 158 -16z m-351 -11
c-48 -22 -61 -24 -105 -16 l-50 9 95 16 c124 21 124 21 60 -9z m148 -276 c2
-281 1 -298 -15 -295 -17 3 -18 26 -21 302 -3 284 -3 298 15 294 17 -3 18 -22
21 -301z m-470 279 c-29 -22 -21 -35 17 -29 28 4 35 2 35 -11 0 -12 -10 -16
-44 -16 -25 0 -48 -5 -51 -11 -12 -19 -83 -458 -78 -479 6 -23 14 -25 218 -42
l150 -12 -80 -7 c-44 -4 -138 -10 -209 -14 l-129 -8 7 59 c10 82 75 471 87
516 10 40 41 68 74 68 19 -1 19 -1 3 -14z m410 -36 c3 -30 2 -32 -22 -26 -14
3 -38 11 -53 17 l-28 11 40 19 c50 23 59 20 63 -21z m-189 -6 c3 -4 -12 -4
-34 -1 -22 4 -46 7 -52 7 -7 0 -13 4 -13 9 0 9 89 -5 99 -15z m141 -33 c36
-13 46 -22 51 -46 10 -45 9 -327 -1 -350 -5 -12 -9 44 -9 147 -1 134 -4 169
-16 182 -18 18 -23 19 -155 47 -106 22 -155 38 -115 38 11 0 37 -3 58 -8 28
-7 46 -5 65 5 28 14 48 12 122 -15z m-1292 -103 c-6 -49 -15 -88 -20 -88 -4 0
-8 5 -8 12 0 16 20 140 26 157 11 33 11 0 2 -81z m1157 -120 c66 -111 130
-219 143 -240 13 -21 19 -38 14 -38 -5 0 -71 105 -147 233 -163 274 -148 247
-138 247 4 0 62 -91 128 -202z m-1385 -123 c0 -163 0 -165 -22 -169 -37 -8
-108 -14 -108 -10 0 11 51 321 55 332 2 6 20 12 40 12 l35 0 0 -165z m118 149
c29 -4 55 -11 59 -16 3 -6 -3 -64 -13 -129 l-18 -119 -35 -11 c-20 -6 -46 -17
-57 -25 -20 -12 -22 -11 -28 33 -3 25 -6 100 -6 165 0 120 0 120 23 115 12 -3
46 -9 75 -13z m-375 -91 c4 -38 7 -105 7 -150 0 -82 0 -83 -25 -83 l-25 0 0
143 c0 79 3 147 7 150 20 20 31 2 36 -60z m66 45 c0 -13 -9 -75 -19 -138 -17
-108 -18 -111 -19 -54 0 34 -4 95 -7 137 l-7 77 27 0 c21 0 26 -5 25 -22z
m459 9 c6 -7 12 -55 14 -107 l3 -95 -47 -9 c-27 -5 -51 -7 -54 -3 -5 5 20 178
31 215 6 16 40 16 53 -1z m-1807 -293 c23 -25 24 -32 27 -190 4 -157 3 -164
-16 -164 -23 0 -32 52 -32 200 -1 56 -7 111 -15 135 -18 49 -18 45 -2 45 8 0
24 -12 38 -26z m3431 2 c10 -15 10 -78 -1 -95 -11 -17 -42 -7 -71 24 l-23 25
23 25 c23 24 16 37 -8 13 -13 -13 -27 -5 -18 11 8 13 89 10 98 -3z m-174 -29
c27 -25 28 -54 3 -87 -19 -24 -20 -24 -40 -6 -26 23 -37 77 -21 105 12 23 21
21 58 -12z m32 17 c0 -14 -3 -14 -15 -4 -8 7 -15 14 -15 16 0 2 7 4 15 4 8 0
15 -7 15 -16z m-116 -55 c8 -79 8 -334 -1 -677 -5 -230 -9 -272 -22 -277 -26
-10 -344 -54 -353 -49 -14 9 -10 134 5 139 6 2 70 11 141 20 70 9 137 20 148
26 11 6 27 27 36 47 14 32 17 92 20 420 3 288 1 387 -8 397 -10 12 -9 15 7 15
17 0 21 -9 27 -61z m-3526 29 c18 -18 15 -94 -4 -112 -8 -9 -30 -16 -47 -15
-29 1 -30 2 -8 8 66 18 79 102 18 120 l-32 9 31 1 c16 1 35 -4 42 -11z m3476
-4 c9 -24 6 -693 -3 -743 -14 -68 -33 -81 -152 -97 -57 -7 -120 -14 -141 -14
l-36 0 5 283 c3 179 9 290 16 305 8 18 8 28 -1 42 -7 12 -12 58 -12 115 l0 95
58 0 c31 1 82 7 112 15 79 19 146 19 154 -1z m-441 -41 c-51 -2 -136 -2 -190
0 -54 1 -12 3 92 3 105 0 149 -2 98 -3z m684 -14 c44 -27 39 -50 -12 -67 -45
-15 -85 -4 -85 23 0 16 43 65 56 65 4 0 22 -10 41 -21z m78 -682 c-21 -11 -21
-87 0 -87 12 0 15 -17 15 -90 l0 -91 -87 3 -88 3 -3 284 -2 285 24 25 c34 36
41 73 22 112 -11 22 -13 36 -6 49 6 10 10 32 10 49 0 26 6 33 44 49 26 12 51
33 62 51 19 32 19 30 22 -300 2 -289 0 -334 -13 -342z m-3521 560 c16 -12 19
-67 33 -769 15 -714 15 -758 -1 -783 -13 -20 -22 -24 -39 -19 -28 8 -505 231
-535 250 -14 10 -22 24 -21 42 0 25 1 25 9 6 6 -15 70 -49 219 -118 318 -146
330 -151 343 -138 13 13 12 216 -1 1027 l-8 479 -23 18 c-26 21 -4 26 24 5z
m-120 -647 c3 -278 9 -576 13 -662 6 -156 0 -186 -25 -135 -7 15 -15 247 -23
709 -10 584 -10 690 2 704 12 15 15 9 20 -47 4 -35 9 -291 13 -569z m2894 613
c-53 -2 -143 -2 -200 0 -57 1 -13 3 97 3 110 0 156 -2 103 -3z m-3219 -568
c15 -722 15 -723 -4 -704 -14 13 -17 100 -27 615 -11 560 -9 670 11 648 5 -5
13 -256 20 -559z m159 -320 c4 -253 7 -462 5 -464 -2 -3 -10 2 -17 10 -21 21
-45 1302 -25 1326 17 20 24 -160 37 -872z m2710 482 c1 -213 -1 -387 -6 -387
-4 0 -13 18 -18 40 -6 22 -7 37 -3 34 12 -7 11 49 -1 80 -6 17 -6 26 0 26 15
0 12 41 -4 72 -11 21 -11 26 -1 22 13 -5 13 30 0 84 -3 12 -1 22 5 22 6 0 8 4
5 10 -5 7 -9 312 -6 378 1 8 7 12 14 10 9 -4 13 -93 15 -391z m-45 359 c8 -21
-4 -57 -17 -53 -6 2 -13 11 -14 21 -7 36 19 63 31 32z m380 -23 c-56 -2 -151
-2 -210 0 -59 1 -13 3 102 3 116 0 164 -2 108 -3z m-443 -398 l0 -345 38 -1
c60 -1 101 -8 130 -23 15 -7 42 -17 60 -21 17 -3 32 -10 32 -14 0 -4 -48 -13
-107 -20 -60 -6 -125 -15 -146 -18 l-38 -6 7 -96 c4 -56 12 -102 20 -111 46
-54 101 -235 109 -364 l5 -81 -15 75 c-57 298 -215 496 -440 555 -164 42 -394
-11 -561 -131 -182 -130 -372 -387 -515 -699 l-44 -95 -37 0 c-21 0 -41 0 -45
0 -15 -1 -31 165 -33 340 -3 241 -7 221 43 252 83 53 100 139 37 192 l-30 25
51 44 c62 55 186 128 278 167 211 86 498 109 705 55 33 -9 61 -14 63 -11 2 2
-31 13 -74 25 -325 87 -680 34 -993 -149 -39 -23 -74 -38 -80 -35 -5 3 -10
139 -11 323 -2 390 -8 497 -29 497 -13 0 -15 -54 -12 -438 4 -422 3 -439 -15
-433 -10 3 -38 10 -63 16 -25 5 -78 19 -119 30 -41 11 -94 20 -117 20 l-42 0
-6 113 c-3 61 -8 246 -11 410 l-6 297 1006 0 1005 0 0 -345z m-2206 283 c3
-29 8 -376 11 -770 6 -709 6 -718 -13 -718 -19 0 -20 10 -26 253 -3 138 -8
485 -12 770 -6 513 -6 517 14 517 17 0 21 -8 26 -52z m2270 36 c7 -19 -11 -57
-25 -49 -15 10 -11 65 5 65 8 0 17 -7 20 -16z m0 -99 c8 -21 -3 -45 -20 -45
-9 0 -14 11 -14 30 0 32 23 42 34 15z m0 -100 c8 -21 -3 -45 -20 -45 -9 0 -14
11 -14 30 0 32 23 42 34 15z m0 -91 c7 -19 -11 -57 -25 -49 -5 4 -9 16 -9 29
0 36 23 50 34 20z m2050 -20 c9 -3 16 -15 16 -25 0 -16 -8 -19 -57 -20 -37 -1
-15 -5 62 -11 66 -5 124 -13 129 -18 5 -5 1 -44 -8 -92 -9 -46 -17 -125 -19
-176 l-2 -94 -75 7 c-161 13 -160 13 -181 61 -18 43 -20 44 -64 44 l-45 0 6
43 c4 23 12 53 18 67 10 23 16 25 65 21 37 -2 56 1 62 10 5 9 9 10 9 2 0 -17
117 -28 135 -13 11 9 15 9 15 1 0 -6 5 -11 10 -11 16 0 11 27 -6 34 -9 3 -43
6 -77 7 -34 1 -88 4 -120 8 l-58 6 26 34 c14 19 25 43 25 53 0 10 7 18 16 18
8 0 12 5 9 10 -15 24 5 40 49 40 24 0 51 -3 60 -6z m351 -97 c-8 -20 -19 -60
-25 -89 l-9 -53 5 58 c4 57 29 135 39 125 3 -3 -2 -21 -10 -41z m-2410 -2 c0
-32 -19 -45 -29 -19 -9 22 3 56 17 51 7 -2 12 -16 12 -32z m2290 19 c8 -4 22
-19 30 -35 22 -42 18 -46 -8 -8 -14 21 -34 36 -52 40 -22 5 -24 7 -8 8 12 0
29 -2 38 -5z m197 -86 c20 -35 17 -253 -4 -300 -37 -83 -62 -31 -62 127 -1 92
3 129 16 158 20 43 32 46 50 15z m-2477 -37 c-4 -12 -12 -20 -18 -18 -15 5
-21 33 -12 54 10 27 39 -8 30 -36z m2332 2 c-3 -10 -5 -4 -5 12 0 17 2 24 5
18 2 -7 2 -21 0 -30z m-529 -25 c-4 -28 -48 -35 -48 -8 0 22 9 30 32 30 14 0
19 -6 16 -22z m505 -33 c15 -70 4 -255 -19 -300 -43 -88 -78 -21 -78 150 0 95
3 116 22 153 18 33 28 43 45 40 16 -2 23 -13 30 -43z m34 -117 c-2 -29 -3 -6
-3 52 0 58 1 81 3 53 2 -29 2 -77 0 -105z m-647 122 c0 -29 -29 -38 -48 -14
-14 18 -14 18 -9 -4 3 -12 1 -20 -4 -16 -9 5 -12 37 -4 45 2 3 18 6 35 7 24 2
30 -1 30 -18z m-1696 -25 c8 -21 -3 -45 -20 -45 -9 0 -14 11 -14 30 0 32 23
42 34 15z m1508 3 c-7 -7 -12 -19 -12 -27 0 -10 5 -6 13 9 15 29 45 38 53 16
9 -23 -13 -45 -42 -42 -13 2 -27 5 -30 9 -9 9 6 47 19 47 8 0 8 -3 -1 -12z
m264 -83 c17 -35 24 -68 24 -111 0 -86 -14 -121 -61 -144 -47 -24 -53 -25 -44
-2 33 86 23 192 -26 261 -16 24 -29 44 -27 46 2 1 21 7 43 12 49 12 60 4 91
-62z m-4772 59 c12 -5 16 -21 16 -66 0 -51 -2 -59 -16 -54 -9 3 -22 6 -30 6
-10 0 -14 15 -14 60 0 62 6 69 44 54z m4352 -34 c-1 -35 -16 -41 -16 -7 0 20
7 37 15 37 1 0 2 -13 1 -30z m60 15 c4 -8 0 -23 -7 -32 -13 -15 -11 -16 11
-10 14 4 60 14 102 24 74 16 79 16 98 -2 63 -57 82 -186 41 -281 l-22 -51
-140 -66 c-77 -37 -138 -61 -135 -54 57 136 41 304 -36 374 -27 24 -23 30 24
38 33 6 38 9 25 17 -20 11 -22 29 -5 46 17 17 37 15 44 -3z m-101 -30 c0 -18
-8 -20 -92 -23 -51 -1 -93 1 -93 6 0 9 134 41 165 39 13 -1 20 -9 20 -22z
m-470 -10 c0 -12 -10 -23 -28 -29 -34 -12 -48 0 -36 32 12 31 64 28 64 -3z
m-79 -16 c1 -27 0 -29 -14 -16 -8 9 -12 23 -9 31 10 26 22 18 23 -15z m1154
-51 c17 -46 34 -97 37 -114 5 -29 3 -32 -57 -57 -34 -15 -74 -27 -89 -27 l-28
0 16 34 c9 18 19 32 23 29 11 -6 60 22 82 46 l19 21 -45 0 -44 0 -11 58 c-6
31 -14 65 -18 75 -6 15 -1 17 38 17 l45 0 32 -82z m-1312 50 c18 -18 14 -36
-13 -54 -50 -32 -92 16 -43 50 27 19 40 20 56 4z m-86 -28 c-5 -32 -22 -42
-22 -12 0 14 17 42 25 42 1 0 0 -13 -3 -30z m765 -24 c14 -17 37 -55 51 -85
21 -46 24 -63 20 -135 -5 -87 -26 -143 -70 -182 -36 -32 -204 -96 -270 -101
l-58 -6 0 54 c0 42 5 58 20 72 18 15 20 29 20 132 l0 115 36 55 c20 30 40 55
44 55 12 0 77 -76 95 -110 9 -17 20 -56 25 -88 l9 -57 -3 61 c-4 69 -22 109
-77 175 -36 44 -37 48 -21 62 16 15 98 26 135 18 9 -2 29 -17 44 -35z m-920
-3 c9 -22 -33 -55 -65 -51 -14 2 -30 11 -36 21 -9 15 -7 21 8 33 27 20 85 18
93 -3z m-112 -23 c0 -30 -8 -39 -20 -20 -7 12 3 50 13 50 4 0 7 -13 7 -30z
m421 -35 c-4 -18 -14 -39 -23 -46 -15 -13 -15 -12 -5 8 7 12 12 35 12 51 0 30
12 51 18 32 2 -6 1 -26 -2 -45z m-476 12 c0 -25 -9 -42 -35 -67 -19 -18 -41
-52 -49 -74 -12 -33 -30 -233 -37 -408 0 -12 -7 13 -15 57 -23 128 -71 261
-110 306 -8 8 -16 52 -20 101 l-7 87 34 5 c66 12 165 24 202 25 36 1 37 0 37
-32z m2177 -24 c-3 -10 -5 -4 -5 12 0 17 2 24 5 18 2 -7 2 -21 0 -30z m-2027
-94 c-7 -15 -18 -30 -26 -33 -17 -6 -18 6 -3 21 6 6 11 32 12 59 1 27 7 52 12
56 15 11 18 -69 5 -103z m1987 74 c-3 -10 -5 -4 -5 12 0 17 2 24 5 18 2 -7 2
-21 0 -30z m-4269 -9 c76 -20 143 -42 150 -48 17 -17 30 -240 13 -250 -8 -5
-11 22 -11 101 0 72 -4 115 -12 126 -8 9 -68 30 -152 51 -131 32 -166 36 -166
15 0 -5 -9 -9 -20 -9 -19 0 -20 -7 -20 -125 0 -108 2 -125 18 -134 15 -9 15
-10 -4 -11 -30 0 -34 16 -34 145 0 126 4 145 30 145 10 0 23 7 30 15 17 21 23
20 178 -21z m2875 -3 c4 -4 -89 -32 -205 -63 l-213 -57 -85 13 -85 12 120 28
c66 16 172 41 235 56 110 26 210 31 233 11z m1462 -53 c3 -7 -1 -4 -9 6 -9 11
-16 29 -15 40 1 17 2 16 9 -6 4 -14 11 -32 15 -40z m-4428 25 l53 -17 0 -89
c0 -78 -2 -88 -16 -83 -9 4 -36 11 -60 17 l-44 11 0 89 c0 49 3 89 7 89 3 0
30 -8 60 -17z m4350 -15 c-3 -7 -5 -2 -5 12 0 14 2 19 5 13 2 -7 2 -19 0 -25z
m-4033 -4 c23 -9 24 -234 1 -234 -12 0 -15 16 -15 83 0 45 -3 99 -6 120 -7 39
-6 41 20 31z m-144 -29 l35 -12 3 -91 c1 -51 -1 -92 -6 -92 -4 0 -36 9 -70 21
l-62 21 0 90 0 90 32 -7 c18 -4 48 -13 68 -20z m-1124 -142 c-3 -3 -23 1 -45
8 l-40 14 42 68 42 68 3 -77 c2 -42 1 -79 -2 -81z m1417 80 c13 -29 -7 -77
-43 -103 -46 -33 -50 -28 -50 76 l0 95 41 -23 c23 -13 46 -33 52 -45z m1998
12 l56 -7 7 -60 c3 -34 6 -143 6 -244 0 -173 -1 -184 -20 -194 -20 -11 -20 -8
-20 194 l0 205 -57 11 c-32 6 -65 14 -75 16 -9 3 -20 -1 -25 -8 -4 -7 -10
-105 -13 -219 l-5 -205 -92 25 c-51 13 -93 27 -93 31 0 3 34 29 75 58 l75 52
0 124 c0 69 -4 135 -9 148 -6 16 -23 27 -57 37 -35 10 -43 15 -29 19 43 10
191 29 205 26 8 -1 40 -6 71 -9z m1746 -17 c-3 -8 -6 -5 -6 6 -1 11 2 17 5 13
3 -3 4 -12 1 -19z m-2604 -72 c70 -21 233 -164 225 -198 -2 -7 10 -42 26 -77
15 -35 30 -82 33 -105 l4 -41 -19 46 c-81 197 -254 295 -458 260 -104 -18
-194 -70 -295 -171 -137 -135 -245 -324 -296 -517 -37 -143 -44 -375 -15 -490
30 -120 67 -189 142 -264 85 -86 148 -112 273 -113 83 -1 86 -2 56 -14 -48
-20 -244 -18 -315 3 -115 33 -184 79 -239 159 -120 175 -119 510 2 860 63 182
140 311 263 440 117 123 239 200 365 233 58 15 181 9 248 -11z m-1508 -85 c3
-5 -24 -53 -60 -105 l-65 -96 0 98 c0 54 3 102 7 105 10 10 111 8 118 -2z
m-533 -322 c629 -314 645 -321 717 -327 46 -4 76 -12 79 -19 5 -16 -145 -18
-197 -3 -19 5 -30 6 -25 1 17 -16 75 -30 148 -37 l74 -7 7 -360 c7 -339 9
-360 26 -364 17 -5 19 -16 19 -115 l0 -109 -52 7 c-80 10 -119 26 -142 57 -20
28 -21 42 -26 448 l-5 420 -25 19 c-14 10 -305 168 -647 350 -343 183 -623
336 -623 340 0 7 9 13 27 19 2 1 292 -143 645 -320z m771 234 c4 -38 7 -117 7
-178 0 -60 5 -152 10 -204 5 -52 7 -98 4 -102 -5 -9 -68 5 -136 31 -84 32 -85
33 -64 72 27 50 19 69 -46 103 -85 44 -83 65 33 260 l50 85 68 0 68 0 6 -67z
m2766 -99 c77 -14 90 -19 75 -27 -82 -47 -403 -187 -428 -187 -27 0 -193 44
-203 53 -7 7 432 185 447 182 8 -2 57 -11 109 -21z m-1502 -75 c85 -41 151
-146 167 -264 4 -27 2 -89 -3 -136 -38 -303 -173 -531 -369 -625 -46 -23 -71
-28 -132 -28 -89 -1 -139 21 -192 83 -129 151 -102 522 56 759 133 201 321
284 473 211z m-1634 -28 c24 -15 37 -30 37 -45 0 -17 15 -29 65 -54 70 -34 78
-50 46 -89 -29 -34 -46 -28 -21 8 12 16 21 32 19 33 -2 2 -68 33 -146 69 -157
72 -142 72 -156 2 -3 -11 -5 3 -6 32 -1 57 -9 52 89 66 31 5 28 6 73 -22z
m-664 -188 c1 -70 3 -72 70 -48 22 8 41 11 42 7 2 -14 -3 -97 -6 -100 -1 -1
-28 12 -58 30 -54 31 -57 35 -57 73 0 22 -2 65 -5 95 -3 39 -2 48 4 30 5 -14
9 -53 10 -87z m2581 -149 c0 -108 -71 -352 -143 -487 -44 -82 -141 -212 -159
-212 -5 0 -17 17 -25 38 -15 37 -15 39 14 75 44 56 107 151 133 202 48 94 100
279 100 355 0 27 6 38 28 49 42 24 52 20 52 -20z m-2570 -155 c154 -111 149
-105 132 -203 l-7 -38 -137 108 -138 108 0 63 c0 35 2 63 5 63 2 0 68 -46 145
-101z m1134 -190 c4 -149 6 -272 4 -275 -3 -2 -12 2 -21 9 -15 10 -18 46 -24
275 -6 258 -6 262 14 262 20 0 20 -8 27 -271z"/>
<path d="M4982 3623 c-12 -23 -25 -1009 -14 -1048 6 -23 15 -31 37 -33 47 -6
100 15 113 43 15 32 17 971 3 1007 -15 41 -122 64 -139 31z m118 -929 c0 -37
-3 -44 -20 -44 -17 0 -20 7 -20 44 0 26 5 46 13 49 21 8 27 -3 27 -49z"/>
<path d="M5070 2693 c0 -43 5 -41 13 5 4 18 2 32 -3 32 -6 0 -10 -16 -10 -37z"/>
<path d="M4707 2462 c-33 -37 -9 -80 38 -68 31 8 45 34 34 64 -10 27 -49 30
-72 4z m58 -2 c3 -5 -1 -10 -9 -10 -9 0 -16 -4 -16 -10 0 -5 8 -10 17 -10 16
0 16 -1 1 -16 -9 -9 -24 -14 -32 -11 -22 9 -21 54 2 60 28 8 31 7 37 -3z"/>
<path d="M4068 2683 c-24 -6 -26 -88 -2 -97 30 -12 34 -6 34 49 0 30 -3 54 -7
54 -5 -1 -16 -3 -25 -6z"/>
<path d="M2283 2881 c-57 -36 -52 -90 12 -117 46 -19 92 -17 142 5 63 29 70
87 13 116 -42 22 -128 19 -167 -4z m31 -20 c-18 -11 -34 -25 -37 -33 -2 -7 -7
-10 -11 -7 -12 11 35 59 57 59 19 0 18 -2 -9 -19z"/>
<path d="M5785 2431 c24 -40 25 -165 1 -246 -4 -11 1 -4 10 15 27 57 21 240
-7 240 -6 0 -8 -4 -4 -9z"/>
<path d="M5777 2338 c6 -91 11 -103 12 -28 0 36 -3 71 -7 78 -5 7 -7 -16 -5
-50z"/>
<path d="M5605 2363 c26 -62 23 -230 -5 -282 -6 -13 -10 -25 -7 -27 2 -3 12
11 21 31 34 72 30 295 -5 295 -7 0 -8 -7 -4 -17z"/>
<path d="M5603 2230 c0 -36 2 -50 4 -32 2 17 2 47 0 65 -2 17 -4 3 -4 -33z"/>
<path d="M5591 2143 c-1 -6 -4 -20 -7 -30 -5 -17 -5 -17 6 0 6 10 9 23 6 30
-3 9 -5 9 -5 0z"/>
<path d="M2698 1444 c-10 -21 -9 -31 2 -51 19 -34 32 -34 44 -2 21 59 -21 108
-46 53z"/>
<path d="M2877 1444 c-10 -11 -8 -82 2 -89 14 -8 33 32 29 62 -3 27 -18 39
-31 27z"/>
<path d="M2699 1312 c-66 -34 -140 -123 -170 -202 -27 -69 -35 -174 -18 -215
12 -29 13 -28 20 41 16 163 97 302 205 355 55 26 142 23 174 -6 11 -10 22 -16
25 -13 3 3 -10 19 -30 37 -31 27 -43 31 -94 31 -45 0 -71 -7 -112 -28z"/>
<path d="M2517 1312 c-31 -34 -16 -82 25 -82 22 0 41 45 33 77 -7 28 -35 30
-58 5z"/>
<path d="M2974 1265 c-15 -37 -13 -65 4 -65 11 0 32 45 32 70 0 35 -20 32 -36
-5z"/>
<path d="M2744 1181 c-51 -23 -80 -60 -99 -124 -14 -48 -20 -117 -10 -117 2 0
20 11 40 24 19 13 59 27 88 31 66 9 83 19 107 58 26 42 25 80 -2 111 -31 35
-73 41 -124 17z"/>
<path d="M2396 1061 c-26 -29 -18 -65 17 -69 39 -5 59 15 55 52 -2 25 -8 32
-29 34 -15 2 -32 -5 -43 -17z"/>
<path d="M2977 1028 c-2 -18 -3 -35 0 -38 7 -8 33 32 33 52 0 32 -27 20 -33
-14z"/>
<path d="M2901 1019 c-1 -35 -45 -120 -80 -153 -16 -15 -46 -34 -67 -42 l-39
-15 40 6 c48 8 87 35 114 78 23 37 45 120 38 139 -3 7 -6 2 -6 -13z"/>
<path d="M2433 819 c-40 -15 -61 -89 -25 -89 25 0 62 41 62 68 0 26 -9 32 -37
21z"/>
<path d="M2886 792 c-20 -40 -17 -50 8 -23 10 11 16 28 14 38 -3 14 -8 11 -22
-15z"/>
<path d="M2721 658 c-21 -57 -23 -70 -10 -66 22 7 50 53 43 71 -9 24 -23 21
-33 -5z"/>
<path d="M2531 636 c-31 -50 -27 -65 14 -50 19 8 48 61 40 74 -12 19 -34 10
-54 -24z"/>
</g>
</svg>
