<svg id="a05de1f7-9b2f-44b3-ba59-238726b31044" data-name="Ñëîé 1" xmlns="http://www.w3.org/2000/svg" width="15.6cm" height="11.03cm" viewBox="0 0 442.33 312.75"><polygon points="128.91 312.75 128.96 223.86 0 149.31 0 238.02 128.91 312.75" fill="#dba763"/><polygon points="128.91 312.75 128.96 223.86 314.57 116.61 314.57 205.32 128.91 312.75" fill="#e8b679"/><polygon points="314.57 116.61 128.96 223.85 0 149.3 185.66 42.1 314.57 116.61" fill="#ffe1c0"/><polygon points="47.94 223.96 76.7 240.66 76.7 193.55 47.94 176.84 47.94 223.96" fill="#4d4d4d"/><polygon points="47.94 176.84 233.43 69.71 262.26 86.38 76.7 193.61 47.94 176.84" fill="#6d6d6d"/><polygon points="119.3 298.03 119.3 289.74 76.01 264.63 76.01 273.04 119.3 298.03" fill="#4d4d4d"/><polygon points="119.3 283.19 119.3 274.9 76.01 249.79 76.01 258.21 119.3 283.19" fill="#4d4d4d"/><polygon points="288.51 180.05 288.51 210.05 309.21 198.09 309.21 168.09 288.51 180.05" fill="#4d4d4d"/><polygon points="260.25 196.44 260.25 226.44 280.96 214.47 280.96 184.48 260.25 196.44" fill="#4d4d4d"/><polygon points="231.63 212.88 231.63 242.88 252.33 230.92 252.33 200.92 231.63 212.88" fill="#4d4d4d"/><polygon points="134.56 227.54 134.56 270.65 177.12 246.06 177.12 202.9 134.56 227.54" fill="#fff"/><polygon points="139.77 236.36 139.77 229.34 173.25 210.04 173.25 216.94 139.77 236.36" fill="#4d4d4d"/><polygon points="144.52 188.85 144.55 136.81 61.28 88.67 61.28 140.59 144.52 188.85" fill="#dba763"/><polygon points="144.52 188.85 144.55 136.81 264.4 67.56 264.4 119.49 144.52 188.85" fill="#e8b679"/><polygon points="264.4 67.66 144.55 136.9 61.28 88.77 181.16 19.54 264.4 67.66" fill="#ffe1c0"/><polygon points="138.31 179.34 138.31 173.99 110.36 157.78 110.36 163.21 138.31 179.34" fill="#4d4d4d"/><polygon points="138.31 169.77 138.31 164.41 110.36 148.2 110.36 153.63 138.31 169.77" fill="#4d4d4d"/><polygon points="243.7 88.59 243.7 112.75 260.38 103.12 260.38 78.96 243.7 88.59" fill="#4d4d4d"/><polygon points="220.94 101.79 220.94 125.95 237.62 116.31 237.62 92.15 220.94 101.79" fill="#4d4d4d"/><polygon points="151.07 142.32 151.07 171.16 193.62 146.57 193.62 117.68 151.07 142.32" fill="#fff"/><polygon points="156.28 151.13 156.28 144.11 189.76 124.81 189.76 131.71 156.28 151.13" fill="#4d4d4d"/><polygon points="82.32 128.21 111.08 144.9 111.08 117.54 82.32 100.83 82.32 128.21" fill="#4d4d4d"/><polygon points="82.32 100.83 202.02 31.6 230.94 48.32 111.08 117.6 82.32 100.83" fill="#6d6d6d"/><path d="M163.86,106.05l31.61,9.41s13.17,10.66,18.14,25.89,5.45,12.58,5.53,27.73.16,92,.16,92-1.11,13.49,2.24,23.94,9.4,22,16.57,29.6,17.74,16.53,27.51,15.65,16.35-4.49,18.24-20V296l-.41-.42c6.72,6.21,15.13,11.9,23,11.19,9.78-.88,16.35-4.49,18.23-19.95V272.5s-11.8-12-16.39-21.92-7-19.07-7.05-27.25-.16-78.46-.16-78.46.5-29.14-.72-33.74S296.26,82,272.22,64.35c-12.11-8.88-21.16-8.46-27.14-4.59l.15-.56L206.38,81.6Z" transform="translate(-3.83 -57.14)" fill="#fff7f0"/><path d="M274,329c.53-.72,7.46-5.36,9.22-13.54a63.78,63.78,0,0,0,.88-11.46s0-3.84-.12-7.34l-.23-.2v-1.37l.19.17c0-.79-.06-1.53-.09-2.16-.2-3.63,2.48-11.38,2.48-11.38s3.81-10.38,15.15-10.78c10.07-.35,20.67,6.89,22.92,8.52v-4.68l.47.29c0-.62,0-1.27-.05-1.9l-.23-.19v-1.38l.19.17c0-.79-.06-1.53-.09-2.15-.2-3.64,2.48-11.39,2.48-11.39s3.81-10.37,15.15-10.77c10.07-.36,20.67,6.88,22.92,8.51v-4.68c.33.22.67.44,1,.65v8.21c0,9.94-3.32,17.41-9.33,21.12l0,0-.21.12-.16.1-.11.06-41.59,23.94s0,0,.06-.06Z" transform="translate(-3.83 -57.14)" fill="#ffd7b0"/><path d="M334.55,249.05s.31-.16.86-.38l.5-.26,39.48-22.85a21.21,21.21,0,0,1,16-.6c8.77,3.21,54.75,30.79,54.75,30.79L405.1,279.41h0l-.11,0L364.25,302.9s-23-14.27-39-23.48l-1-.59c-6.52-3.75-11.69-6.55-13.32-7-9.83-2.6-16.66.57-18.44,1.55Z" transform="translate(-3.83 -57.14)" fill="#fff7f0"/><path d="M292.49,273.4l-.48.27S292.18,273.56,292.49,273.4Z" transform="translate(-3.83 -57.14)" fill="#fff7f0"/><path d="M194.59,114.7h0a40.92,40.92,0,0,0-20.92-10.24c-12.93-2-18.27,13.14-18.27,13.14A82.57,82.57,0,0,0,154,130.1c0,4.65.38,21.53.38,21.53l41-23.61h0a.49.49,0,0,0,.28-.45v-12C195.27,115.24,194.93,115,194.59,114.7Z" transform="translate(-3.83 -57.14)" fill="#ffd7b0"/><path d="M266,330.82c-4.52,0-9.52-1.51-14.69-4.49-18-10.38-32.6-35.7-32.6-56.45V165.45c0-20.57-14.49-45.68-32.32-56-8.53-4.93-16.53-5.74-22.52-2.29s-9.28,10.79-9.28,20.65v23.34a.51.51,0,0,1-.51.52.51.51,0,0,1-.51-.52V127.84c0-10.24,3.47-17.88,9.79-21.53s14.68-2.84,23.55,2.28c18.1,10.45,32.83,36,32.83,56.86V269.88c0,20.42,14.39,45.35,32.08,55.56,8.47,4.89,16.41,5.7,22.35,2.27s9.22-10.71,9.22-20.5V295c0-10.6,3.6-18.51,10.14-22.29s15.19-2.93,24.37,2.37l46.34,27a.51.51,0,0,1-.51.88l-46.34-27c-8.85-5.11-17.14-5.95-23.35-2.36s-9.63,11.18-9.63,21.4v12.25c0,10.17-3.46,17.76-9.73,21.38A17.13,17.13,0,0,1,266,330.82Z" transform="translate(-3.83 -57.14)" fill="#ffdec5"/><path d="M259.43,154.52l6.85-4a2.82,2.82,0,0,0,1.18-2.21h0c0-.85-.49-1.24-1.13-.88l-6.85,4a2.81,2.81,0,0,0-1.17,2.21h0C258.29,154.49,258.8,154.88,259.43,154.52Z" transform="translate(-3.83 -57.14)" fill="#e59751"/><path d="M243.11,163.94l10.1-5.83a2.82,2.82,0,0,0,1.18-2.21h0c0-.86-.49-1.25-1.13-.88l-10.1,5.83a2.81,2.81,0,0,0-1.17,2.21h0C242,163.91,242.48,164.31,243.11,163.94Z" transform="translate(-3.83 -57.14)" fill="#e59751"/><path d="M262.82,191.05l6.86-4a2.82,2.82,0,0,0,1.17-2.21h0c0-.85-.49-1.25-1.12-.88l-6.85,4a2.79,2.79,0,0,0-1.18,2.21h0C261.69,191,262.19,191.41,262.82,191.05Z" transform="translate(-3.83 -57.14)" fill="#e59751"/><path d="M248.28,199.44l10.1-5.83a2.82,2.82,0,0,0,1.18-2.21h0c0-.85-.49-1.24-1.13-.88l-10.1,5.83a2.85,2.85,0,0,0-1.18,2.21h0C247.14,199.42,247.64,199.81,248.28,199.44Z" transform="translate(-3.83 -57.14)" fill="#e59751"/><path d="M278.21,150.09l4.28-2.47a2.85,2.85,0,0,0,1.18-2.21h0c0-.86-.49-1.25-1.13-.88L278.26,147a2.81,2.81,0,0,0-1.17,2.21h0C277.07,150.06,277.58,150.45,278.21,150.09Z" transform="translate(-3.83 -57.14)" fill="#e59751"/><path d="M263.6,164.94l13.08-7.55a2.84,2.84,0,0,0,1.17-2.21h0c0-.85-.49-1.25-1.12-.88l-13.08,7.55a2.84,2.84,0,0,0-1.17,2.21h0C262.46,164.91,263,165.31,263.6,164.94Z" transform="translate(-3.83 -57.14)" fill="#e59751"/><path d="M272.19,172.81l4.28-2.47a2.82,2.82,0,0,0,1.17-2.21h0c0-.85-.49-1.25-1.12-.88l-4.28,2.47a2.82,2.82,0,0,0-1.18,2.21h0C271.05,172.78,271.55,173.18,272.19,172.81Z" transform="translate(-3.83 -57.14)" fill="#e59751"/><path d="M243.23,215.19l11.43-6.6a2.84,2.84,0,0,0,1.17-2.21h0c0-.85-.49-1.25-1.12-.88l-11.43,6.6a2.85,2.85,0,0,0-1.18,2.21h0C242.09,215.16,242.59,215.56,243.23,215.19Z" transform="translate(-3.83 -57.14)" fill="#e59751"/><path d="M273.51,184.88l2.75-1.59a2.81,2.81,0,0,0,1.17-2.21h0c0-.85-.49-1.25-1.12-.88l-2.75,1.59a2.82,2.82,0,0,0-1.18,2.21h0C272.37,184.85,272.87,185.24,273.51,184.88Z" transform="translate(-3.83 -57.14)" fill="#e59751"/><path d="M272.63,198.21l3.42-2a2.81,2.81,0,0,0,1.17-2.21h0c0-.85-.49-1.24-1.12-.88l-3.42,2a2.84,2.84,0,0,0-1.17,2.21h0C271.5,198.18,272,198.58,272.63,198.21Z" transform="translate(-3.83 -57.14)" fill="#e59751"/><path d="M259.36,205.87l9-5.19a2.82,2.82,0,0,0,1.17-2.21h0c0-.85-.49-1.25-1.12-.88l-9,5.19a2.84,2.84,0,0,0-1.17,2.21h0C258.23,205.85,258.73,206.24,259.36,205.87Z" transform="translate(-3.83 -57.14)" fill="#e59751"/><path d="M269.47,206.45l6.47-3.73a2.85,2.85,0,0,0,1.18-2.21h0c0-.86-.49-1.25-1.13-.88l-6.47,3.73a2.84,2.84,0,0,0-1.17,2.21h0C268.34,206.42,268.84,206.82,269.47,206.45Z" transform="translate(-3.83 -57.14)" fill="#e59751"/><path d="M256.27,182l11.43-6.6a2.81,2.81,0,0,0,1.17-2.21h0c0-.85-.49-1.24-1.12-.88l-11.43,6.6a2.85,2.85,0,0,0-1.18,2.21h0C255.13,182,255.63,182.37,256.27,182Z" transform="translate(-3.83 -57.14)" fill="#e59751"/><path d="M256.65,175.37l19.92-11.5a2.85,2.85,0,0,0,1.18-2.21h0c0-.86-.49-1.25-1.13-.88l-19.92,11.5a2.84,2.84,0,0,0-1.18,2.21h0C255.51,175.34,256,175.73,256.65,175.37Z" transform="translate(-3.83 -57.14)" fill="#e59751"/><path d="M264.93,183.42l11.43-6.6a2.85,2.85,0,0,0,1.18-2.21h0c0-.86-.49-1.25-1.13-.88L265,180.33a2.8,2.8,0,0,0-1.17,2.2h0C263.79,183.39,264.3,183.78,264.93,183.42Z" transform="translate(-3.83 -57.14)" fill="#e59751"/><path d="M247.6,187l4.15-2.4a2.85,2.85,0,0,0,1.18-2.21h0c0-.85-.49-1.25-1.13-.88l-4.15,2.4a2.82,2.82,0,0,0-1.18,2.21h0C246.46,187,247,187.37,247.6,187Z" transform="translate(-3.83 -57.14)" fill="#e59751"/><path d="M262.41,197.7l13.74-7.93a2.85,2.85,0,0,0,1.18-2.21h0c0-.86-.49-1.25-1.13-.88l-13.74,7.93a2.84,2.84,0,0,0-1.17,2.21h0C261.27,197.67,261.78,198.07,262.41,197.7Z" transform="translate(-3.83 -57.14)" fill="#e59751"/><path d="M272.5,147l10.1-5.83a2.81,2.81,0,0,0,1.17-2.21h0c0-.85-.49-1.25-1.12-.88l-10.1,5.83a2.85,2.85,0,0,0-1.18,2.21h0C271.36,147,271.86,147.34,272.5,147Z" transform="translate(-3.83 -57.14)" fill="#e59751"/><path d="M269.85,212.65l11.7-6.76a2.8,2.8,0,0,0,1.17-2.2h0c0-.86-.49-1.25-1.12-.89l-11.7,6.76a2.83,2.83,0,0,0-1.18,2.21h0C268.71,212.62,269.21,213,269.85,212.65Z" transform="translate(-3.83 -57.14)" fill="#e59751"/><path d="M264.44,252.5l6.85-4a2.84,2.84,0,0,0,1.17-2.21h0c0-.85-.49-1.25-1.12-.88l-6.85,4a2.82,2.82,0,0,0-1.18,2.21h0C263.3,252.47,263.8,252.86,264.44,252.5Z" transform="translate(-3.83 -57.14)" fill="#e59751"/><path d="M249.89,260.89l10.1-5.83a2.83,2.83,0,0,0,1.18-2.21h0c0-.85-.49-1.25-1.13-.88l-10.1,5.83a2.85,2.85,0,0,0-1.18,2.21h0C248.75,260.87,249.25,261.26,249.89,260.89Z" transform="translate(-3.83 -57.14)" fill="#e59751"/><path d="M265.21,226.39l13.08-7.55a2.84,2.84,0,0,0,1.17-2.21h0c0-.85-.49-1.25-1.12-.88l-13.08,7.55a2.81,2.81,0,0,0-1.17,2.21h0C264.07,226.36,264.58,226.76,265.21,226.39Z" transform="translate(-3.83 -57.14)" fill="#e59751"/><path d="M273.8,234.26l4.28-2.47a2.84,2.84,0,0,0,1.17-2.21h0c0-.85-.49-1.25-1.12-.88l-4.28,2.47a2.82,2.82,0,0,0-1.18,2.21h0C272.66,234.23,273.16,234.63,273.8,234.26Z" transform="translate(-3.83 -57.14)" fill="#e59751"/><path d="M275.12,246.33l2.75-1.59a2.84,2.84,0,0,0,1.17-2.21h0c0-.85-.49-1.25-1.12-.88l-2.75,1.59a2.82,2.82,0,0,0-1.18,2.21h0C274,246.3,274.48,246.69,275.12,246.33Z" transform="translate(-3.83 -57.14)" fill="#e59751"/><path d="M257.88,243.45l11.43-6.6a2.81,2.81,0,0,0,1.17-2.21h0c0-.85-.49-1.25-1.12-.88l-11.43,6.6a2.85,2.85,0,0,0-1.18,2.21h0C256.74,243.42,257.24,243.82,257.88,243.45Z" transform="translate(-3.83 -57.14)" fill="#e59751"/><path d="M258.26,236.82l19.92-11.51a2.81,2.81,0,0,0,1.18-2.2h0c0-.86-.49-1.25-1.13-.89l-19.92,11.51a2.81,2.81,0,0,0-1.17,2.21h0C257.12,236.79,257.63,237.18,258.26,236.82Z" transform="translate(-3.83 -57.14)" fill="#e59751"/><path d="M266.54,244.86,278,238.27a2.85,2.85,0,0,0,1.18-2.21h0c0-.86-.49-1.25-1.13-.88l-11.43,6.59a2.84,2.84,0,0,0-1.17,2.21h0C265.4,244.84,265.91,245.23,266.54,244.86Z" transform="translate(-3.83 -57.14)" fill="#e59751"/><path d="M249.21,248.46l4.15-2.4a2.85,2.85,0,0,0,1.18-2.21h0c0-.85-.49-1.25-1.13-.88l-4.15,2.4a2.82,2.82,0,0,0-1.18,2.21h0C248.07,248.43,248.57,248.82,249.21,248.46Z" transform="translate(-3.83 -57.14)" fill="#e59751"/><path d="M318.27,181.1v38.33L285.08,238.6V200.27l33.19-19.17m14.66-25.39L270.42,191.8V264l62.51-36.1V155.71Z" transform="translate(-3.83 -57.14)" fill="#ffe2c7"/><polygon points="266.48 132.41 308.95 171.36 356.46 66.32 302.75 145.19 266.48 132.41" fill="#5cb15c"/></svg>